<?xml version='1.0' encoding='utf-8'?>
<mlt LC_NUMERIC="C" producer="main_bin" version="7.4.0" root="/home/forrest/repos/funix-doc/videos/table_slider_plot">
 <profile frame_rate_num="25" sample_aspect_num="1" display_aspect_den="5" colorspace="709" progressive="1" description="2560x1600 25.00fps" display_aspect_num="8" frame_rate_den="1" width="2560" height="1600" sample_aspect_den="1"/>
 <producer id="producer0" in="00:00:00.000" out="00:00:00.960">
  <property name="length">25</property>
  <property name="eof">pause</property>
  <property name="resource">table_slider_plot.png</property>
  <property name="ttl">25</property>
  <property name="aspect_ratio">1</property>
  <property name="progressive">1</property>
  <property name="seekable">1</property>
  <property name="meta.media.width">1529</property>
  <property name="meta.media.height">1028</property>
  <property name="mlt_service">qimage</property>
  <property name="kdenlive:clipname"/>
  <property name="kdenlive:folderid">-1</property>
  <property name="kdenlive:id">2</property>
  <property name="kdenlive:file_size">143638</property>
  <property name="kdenlive:file_hash">34acad321906ebbfa0870a1bdb642d82</property>
  <property name="kdenlive:duration">00:00:01.000</property>
 </producer>
 <producer id="producer1" in="00:00:00.000" out="00:00:04.960">
  <property name="length">00:00:05.000</property>
  <property name="eof">pause</property>
  <property name="resource">0xffffffff</property>
  <property name="aspect_ratio">1</property>
  <property name="mlt_service">color</property>
  <property name="kdenlive:clipname">White BG</property>
  <property name="kdenlive:duration">00:00:05.000</property>
  <property name="kdenlive:folderid">-1</property>
  <property name="kdenlive:id">4</property>
  <property name="kdenlive:file_hash">039b56a692cd66eefeea44a17539e5a2</property>
  <property name="mlt_image_format">rgb</property>
 </producer>
 <producer id="producer2" in="00:00:00.000" out="00:00:04.960">
  <property name="length">125</property>
  <property name="eof">pause</property>
  <property name="resource"/>
  <property name="progressive">1</property>
  <property name="aspect_ratio">1</property>
  <property name="seekable">1</property>
  <property name="mlt_service">kdenlivetitle</property>
  <property name="kdenlive:duration">125</property>
  <property name="kdenlive:clipname">Compound dat...</property>
  <property name="xmldata">&lt;kdenlivetitle duration="125" LC_NUMERIC="C" width="2560" height="1600" out="124">
 &lt;item type="QGraphicsTextItem" z-index="0">
  &lt;position x="283" y="646">
   &lt;transform>1,0,0,0,1,0,0,0,1&lt;/transform>
  &lt;/position>
  &lt;content line-spacing="0" shadow="0;#64000000;3;3;3" font-underline="0" box-height="308" font="FreeSans" letter-spacing="0" font-pixel-size="140" font-italic="0" typewriter="1;1;1;0;0" alignment="4" font-weight="75" box-width="1994.58" font-color="0,0,0,255">Interactive sheets and charts 
for data in seconds.&lt;/content>
 &lt;/item>
 &lt;startviewport rect="0,0,2560,1600"/>
 &lt;endviewport rect="0,0,2560,1600"/>
 &lt;background color="0,0,0,0"/>
&lt;/kdenlivetitle>
</property>
  <property name="kdenlive:folderid">-1</property>
  <property name="kdenlive:id">6</property>
  <property name="kdenlive:file_hash">e4735d3b16c4fbbfb7238d07496cd845</property>
  <property name="force_reload">0</property>
  <property name="meta.media.width">2560</property>
  <property name="meta.media.height">1600</property>
 </producer>
 <producer id="producer3" in="00:00:00.000" out="00:00:21.160">
  <property name="length">530</property>
  <property name="eof">pause</property>
  <property name="resource">table_slider_plot_code.mp4</property>
  <property name="meta.media.nb_streams">1</property>
  <property name="meta.media.0.stream.type">video</property>
  <property name="meta.media.0.stream.frame_rate">5</property>
  <property name="meta.media.0.stream.sample_aspect_ratio">1</property>
  <property name="meta.media.0.codec.width">1264</property>
  <property name="meta.media.0.codec.height">852</property>
  <property name="meta.media.0.codec.rotate">0</property>
  <property name="meta.media.0.codec.pix_fmt">yuv444p</property>
  <property name="meta.media.0.codec.sample_aspect_ratio">1</property>
  <property name="meta.media.0.codec.colorspace">709</property>
  <property name="meta.media.0.codec.color_trc">1</property>
  <property name="meta.media.0.codec.name">h264</property>
  <property name="meta.media.0.codec.long_name">H.264 / AVC / MPEG-4 AVC / MPEG-4 part 10</property>
  <property name="meta.media.0.codec.bit_rate">364301</property>
  <property name="meta.attr.0.stream.creation_time.markup">2023-03-12T15:29:31.000000Z</property>
  <property name="meta.attr.0.stream.handler_name.markup">VideoHandler</property>
  <property name="meta.attr.0.stream.vendor_id.markup">[0][0][0][0]</property>
  <property name="meta.attr.major_brand.markup">mp42</property>
  <property name="meta.attr.minor_version.markup">0</property>
  <property name="meta.attr.compatible_brands.markup">mp42mp41isomiso2</property>
  <property name="meta.attr.creation_time.markup">2023-03-12T15:29:31.000000Z</property>
  <property name="meta.attr.encoder.markup">x264</property>
  <property name="seekable">1</property>
  <property name="meta.media.sample_aspect_num">1</property>
  <property name="meta.media.sample_aspect_den">1</property>
  <property name="aspect_ratio">1</property>
  <property name="audio_index">-1</property>
  <property name="video_index">0</property>
  <property name="mute_on_pause">0</property>
  <property name="mlt_service">avformat-novalidate</property>
  <property name="kdenlive:clipname"/>
  <property name="kdenlive:folderid">-1</property>
  <property name="meta.media.frame_rate_num">5</property>
  <property name="meta.media.frame_rate_den">1</property>
  <property name="meta.media.colorspace">709</property>
  <property name="meta.media.color_trc">1</property>
  <property name="meta.media.has_b_frames">0</property>
  <property name="meta.media.width">1264</property>
  <property name="meta.media.height">852</property>
  <property name="meta.media.color_range">mpeg</property>
  <property name="kdenlive:id">7</property>
  <property name="kdenlive:file_size">966752</property>
  <property name="kdenlive:file_hash">10a335898e3003f59dbbbd38180d1523</property>
  <property name="meta.media.top_field_first">0</property>
  <property name="meta.media.progressive">1</property>
 </producer>
 <producer id="producer4" in="00:00:00.000" out="00:00:04.960">
  <property name="length">00:00:05.000</property>
  <property name="eof">pause</property>
  <property name="resource">table_slider_plot_code.png</property>
  <property name="ttl">25</property>
  <property name="aspect_ratio">1</property>
  <property name="progressive">1</property>
  <property name="seekable">1</property>
  <property name="meta.media.width">1263</property>
  <property name="meta.media.height">851</property>
  <property name="mlt_service">qimage</property>
  <property name="kdenlive:clipname"/>
  <property name="kdenlive:duration">00:00:05.000</property>
  <property name="kdenlive:folderid">-1</property>
  <property name="kdenlive:id">8</property>
  <property name="kdenlive:file_size">132519</property>
  <property name="kdenlive:file_hash">ecd712e8cd1c82c362917e18f02d4059</property>
 </producer>
 <producer id="producer5" in="00:00:00.000" out="00:01:05.360">
  <property name="length">1635</property>
  <property name="eof">pause</property>
  <property name="resource">table_slider_plot.mp4</property>
  <property name="audio_index">-1</property>
  <property name="video_index">0</property>
  <property name="mute_on_pause">0</property>
  <property name="mlt_service">avformat-novalidate</property>
  <property name="seekable">1</property>
  <property name="aspect_ratio">1</property>
  <property name="kdenlive:clipname"/>
  <property name="kdenlive:folderid">-1</property>
  <property name="kdenlive:id">3</property>
  <property name="kdenlive:file_size">2321461</property>
  <property name="kdenlive:file_hash">99dcf06413a47fc258ee23cf72bb4ab8</property>
  <property name="meta.media.nb_streams">1</property>
  <property name="meta.media.0.stream.type">video</property>
  <property name="meta.media.0.stream.frame_rate">5</property>
  <property name="meta.media.0.stream.sample_aspect_ratio">1</property>
  <property name="meta.media.0.codec.width">1210</property>
  <property name="meta.media.0.codec.height">750</property>
  <property name="meta.media.0.codec.rotate">0</property>
  <property name="meta.media.0.codec.pix_fmt">yuv444p</property>
  <property name="meta.media.0.codec.sample_aspect_ratio">1</property>
  <property name="meta.media.0.codec.colorspace">709</property>
  <property name="meta.media.0.codec.color_trc">1</property>
  <property name="meta.media.0.codec.name">h264</property>
  <property name="meta.media.0.codec.long_name">H.264 / AVC / MPEG-4 AVC / MPEG-4 part 10</property>
  <property name="meta.media.0.codec.bit_rate">283695</property>
  <property name="meta.attr.0.stream.creation_time.markup">2023-03-12T16:07:11.000000Z</property>
  <property name="meta.attr.0.stream.handler_name.markup">VideoHandler</property>
  <property name="meta.attr.0.stream.vendor_id.markup">[0][0][0][0]</property>
  <property name="meta.attr.major_brand.markup">mp42</property>
  <property name="meta.attr.minor_version.markup">0</property>
  <property name="meta.attr.compatible_brands.markup">mp42mp41isomiso2</property>
  <property name="meta.attr.creation_time.markup">2023-03-12T16:07:11.000000Z</property>
  <property name="meta.attr.encoder.markup">x264</property>
  <property name="meta.media.sample_aspect_num">1</property>
  <property name="meta.media.sample_aspect_den">1</property>
  <property name="meta.media.frame_rate_num">5</property>
  <property name="meta.media.frame_rate_den">1</property>
  <property name="meta.media.colorspace">709</property>
  <property name="meta.media.color_trc">1</property>
  <property name="meta.media.has_b_frames">0</property>
  <property name="meta.media.width">1210</property>
  <property name="meta.media.height">750</property>
  <property name="meta.media.color_range">mpeg</property>
  <property name="meta.media.top_field_first">0</property>
  <property name="meta.media.progressive">1</property>
 </producer>
 <producer id="producer6" in="00:00:00.000" out="00:00:43.760">
  <property name="length">1095</property>
  <property name="eof">pause</property>
  <property name="resource">table_slider_plot_run-2.mp4</property>
  <property name="meta.media.nb_streams">1</property>
  <property name="meta.media.0.stream.type">video</property>
  <property name="meta.media.0.stream.frame_rate">5</property>
  <property name="meta.media.0.stream.sample_aspect_ratio">1</property>
  <property name="meta.media.0.codec.width">1210</property>
  <property name="meta.media.0.codec.height">750</property>
  <property name="meta.media.0.codec.rotate">0</property>
  <property name="meta.media.0.codec.pix_fmt">yuv444p</property>
  <property name="meta.media.0.codec.sample_aspect_ratio">1</property>
  <property name="meta.media.0.codec.colorspace">709</property>
  <property name="meta.media.0.codec.color_trc">1</property>
  <property name="meta.media.0.codec.name">h264</property>
  <property name="meta.media.0.codec.long_name">H.264 / AVC / MPEG-4 AVC / MPEG-4 part 10</property>
  <property name="meta.media.0.codec.bit_rate">317975</property>
  <property name="meta.attr.0.stream.creation_time.markup">2023-03-12T16:21:40.000000Z</property>
  <property name="meta.attr.0.stream.handler_name.markup">VideoHandler</property>
  <property name="meta.attr.0.stream.vendor_id.markup">[0][0][0][0]</property>
  <property name="meta.attr.major_brand.markup">mp42</property>
  <property name="meta.attr.minor_version.markup">0</property>
  <property name="meta.attr.compatible_brands.markup">mp42mp41isomiso2</property>
  <property name="meta.attr.creation_time.markup">2023-03-12T16:21:40.000000Z</property>
  <property name="meta.attr.encoder.markup">x264</property>
  <property name="seekable">1</property>
  <property name="meta.media.sample_aspect_num">1</property>
  <property name="meta.media.sample_aspect_den">1</property>
  <property name="aspect_ratio">1</property>
  <property name="audio_index">-1</property>
  <property name="video_index">0</property>
  <property name="mute_on_pause">0</property>
  <property name="mlt_service">avformat-novalidate</property>
  <property name="kdenlive:clipname"/>
  <property name="kdenlive:folderid">-1</property>
  <property name="meta.media.frame_rate_num">5</property>
  <property name="meta.media.frame_rate_den">1</property>
  <property name="meta.media.colorspace">709</property>
  <property name="meta.media.color_trc">1</property>
  <property name="meta.media.has_b_frames">0</property>
  <property name="meta.media.width">1210</property>
  <property name="meta.media.height">750</property>
  <property name="meta.media.color_range">mpeg</property>
  <property name="kdenlive:id">9</property>
  <property name="kdenlive:file_size">1742729</property>
  <property name="kdenlive:file_hash">eb00c1abdd67f6f3bff288556402db4c</property>
  <property name="meta.media.top_field_first">0</property>
  <property name="meta.media.progressive">1</property>
 </producer>
 <producer id="producer7" in="00:00:00.000" out="00:00:41.760">
  <property name="length">1045</property>
  <property name="eof">pause</property>
  <property name="resource">table_slider_plot_run_3.mp4</property>
  <property name="meta.media.nb_streams">1</property>
  <property name="meta.media.0.stream.type">video</property>
  <property name="meta.media.0.stream.frame_rate">5</property>
  <property name="meta.media.0.stream.sample_aspect_ratio">1</property>
  <property name="meta.media.0.codec.width">1284</property>
  <property name="meta.media.0.codec.height">668</property>
  <property name="meta.media.0.codec.rotate">0</property>
  <property name="meta.media.0.codec.pix_fmt">yuv444p</property>
  <property name="meta.media.0.codec.sample_aspect_ratio">1</property>
  <property name="meta.media.0.codec.colorspace">709</property>
  <property name="meta.media.0.codec.color_trc">1</property>
  <property name="meta.media.0.codec.name">h264</property>
  <property name="meta.media.0.codec.long_name">H.264 / AVC / MPEG-4 AVC / MPEG-4 part 10</property>
  <property name="meta.media.0.codec.bit_rate">328090</property>
  <property name="meta.attr.0.stream.creation_time.markup">2023-03-12T16:44:19.000000Z</property>
  <property name="meta.attr.0.stream.handler_name.markup">VideoHandler</property>
  <property name="meta.attr.0.stream.vendor_id.markup">[0][0][0][0]</property>
  <property name="meta.attr.major_brand.markup">mp42</property>
  <property name="meta.attr.minor_version.markup">0</property>
  <property name="meta.attr.compatible_brands.markup">mp42mp41isomiso2</property>
  <property name="meta.attr.creation_time.markup">2023-03-12T16:44:19.000000Z</property>
  <property name="meta.attr.encoder.markup">x264</property>
  <property name="seekable">1</property>
  <property name="meta.media.sample_aspect_num">1</property>
  <property name="meta.media.sample_aspect_den">1</property>
  <property name="aspect_ratio">1</property>
  <property name="audio_index">-1</property>
  <property name="video_index">0</property>
  <property name="mute_on_pause">0</property>
  <property name="mlt_service">avformat-novalidate</property>
  <property name="kdenlive:clipname"/>
  <property name="kdenlive:folderid">-1</property>
  <property name="meta.media.frame_rate_num">5</property>
  <property name="meta.media.frame_rate_den">1</property>
  <property name="meta.media.colorspace">709</property>
  <property name="meta.media.color_trc">1</property>
  <property name="meta.media.has_b_frames">0</property>
  <property name="meta.media.width">1284</property>
  <property name="meta.media.height">668</property>
  <property name="meta.media.color_range">mpeg</property>
  <property name="kdenlive:id">10</property>
  <property name="kdenlive:file_size">1716050</property>
  <property name="kdenlive:file_hash">2a04e315e140be8a65a7c3ffe44db510</property>
  <property name="meta.media.top_field_first">0</property>
  <property name="meta.media.progressive">1</property>
 </producer>
 <playlist id="main_bin">
  <property name="kdenlive:docproperties.activeTrack">3</property>
  <property name="kdenlive:docproperties.audioChannels">2</property>
  <property name="kdenlive:docproperties.audioTarget">-1</property>
  <property name="kdenlive:docproperties.disablepreview">0</property>
  <property name="kdenlive:docproperties.documentid">1678634666274</property>
  <property name="kdenlive:docproperties.enableTimelineZone">1</property>
  <property name="kdenlive:docproperties.enableexternalproxy">0</property>
  <property name="kdenlive:docproperties.enableproxy">0</property>
  <property name="kdenlive:docproperties.externalproxyparams"/>
  <property name="kdenlive:docproperties.generateimageproxy">0</property>
  <property name="kdenlive:docproperties.generateproxy">0</property>
  <property name="kdenlive:docproperties.groups">[
]
</property>
  <property name="kdenlive:docproperties.kdenliveversion">21.12.3</property>
  <property name="kdenlive:docproperties.position">460</property>
  <property name="kdenlive:docproperties.previewextension"/>
  <property name="kdenlive:docproperties.previewparameters"/>
  <property name="kdenlive:docproperties.profile">/home/forrest/.local/share/kdenlive/profiles/customprofile0</property>
  <property name="kdenlive:docproperties.proxyextension"/>
  <property name="kdenlive:docproperties.proxyimageminsize">2000</property>
  <property name="kdenlive:docproperties.proxyimagesize">800</property>
  <property name="kdenlive:docproperties.proxyminsize">1000</property>
  <property name="kdenlive:docproperties.proxyparams"/>
  <property name="kdenlive:docproperties.proxyresize">640</property>
  <property name="kdenlive:docproperties.scrollPos">3721</property>
  <property name="kdenlive:docproperties.seekOffset">30000</property>
  <property name="kdenlive:docproperties.version">1.04</property>
  <property name="kdenlive:docproperties.verticalzoom">1</property>
  <property name="kdenlive:docproperties.videoTarget">2</property>
  <property name="kdenlive:docproperties.zonein">0</property>
  <property name="kdenlive:docproperties.zoneout">428</property>
  <property name="kdenlive:docproperties.zoom">2</property>
  <property name="kdenlive:expandedFolders"/>
  <property name="kdenlive:documentnotes"/>
  <property name="kdenlive:docproperties.renderaudioquality">192</property>
  <property name="kdenlive:docproperties.rendercategory">Generic (HD for web, mobile devices...)</property>
  <property name="kdenlive:docproperties.renderendguide">-1</property>
  <property name="kdenlive:docproperties.renderexportaudio">1</property>
  <property name="kdenlive:docproperties.renderfield">0</property>
  <property name="kdenlive:docproperties.renderguide">0</property>
  <property name="kdenlive:docproperties.renderplay">0</property>
  <property name="kdenlive:docproperties.renderprofile">MP4-H264/AAC</property>
  <property name="kdenlive:docproperties.renderquality">23</property>
  <property name="kdenlive:docproperties.renderratio">1</property>
  <property name="kdenlive:docproperties.renderrescale">0</property>
  <property name="kdenlive:docproperties.renderrescaleheight">800</property>
  <property name="kdenlive:docproperties.renderrescalewidth">1280</property>
  <property name="kdenlive:docproperties.renderscanning">0</property>
  <property name="kdenlive:docproperties.renderspeed">2</property>
  <property name="kdenlive:docproperties.renderstartguide">-1</property>
  <property name="kdenlive:docproperties.rendertcoverlay">0</property>
  <property name="kdenlive:docproperties.rendertctype">0</property>
  <property name="kdenlive:docproperties.rendertwopass">0</property>
  <property name="kdenlive:docproperties.renderurl">table_slider_plot_redo.mp4</property>
  <property name="kdenlive:docproperties.renderzone">1</property>
  <property name="xml_retain">1</property>
  <entry producer="producer0" in="00:00:00.000" out="00:00:00.960"/>
  <entry producer="producer1" in="00:00:00.000" out="00:00:04.960"/>
  <entry producer="producer2" in="00:00:00.000" out="00:00:04.960"/>
  <entry producer="producer3" in="00:00:00.000" out="00:00:21.160"/>
  <entry producer="producer4" in="00:00:00.000" out="00:00:04.960"/>
  <entry producer="producer5" in="00:00:00.000" out="00:01:05.360"/>
  <entry producer="producer6" in="00:00:00.000" out="00:00:43.760"/>
  <entry producer="producer7" in="00:00:00.000" out="00:00:41.760"/>
 </playlist>
 <producer id="black_track" in="00:00:00.000" out="00:20:22.200">
  <property name="length">2147483647</property>
  <property name="eof">continue</property>
  <property name="resource">black</property>
  <property name="aspect_ratio">1</property>
  <property name="mlt_service">color</property>
  <property name="mlt_image_format">rgba</property>
  <property name="set.test_audio">0</property>
 </producer>
 <playlist id="playlist0">
  <property name="kdenlive:audio_track">1</property>
 </playlist>
 <playlist id="playlist1">
  <property name="kdenlive:audio_track">1</property>
 </playlist>
 <tractor id="tractor0" in="00:00:00.000">
  <property name="kdenlive:audio_track">1</property>
  <property name="kdenlive:trackheight">69</property>
  <property name="kdenlive:timeline_active">1</property>
  <property name="kdenlive:collapsed">0</property>
  <property name="kdenlive:thumbs_format"/>
  <property name="kdenlive:audio_rec"/>
  <track hide="video" producer="playlist0"/>
  <track hide="video" producer="playlist1"/>
  <filter id="filter0">
   <property name="window">75</property>
   <property name="max_gain">20dB</property>
   <property name="mlt_service">volume</property>
   <property name="internal_added">237</property>
   <property name="disable">1</property>
  </filter>
  <filter id="filter1">
   <property name="channel">-1</property>
   <property name="mlt_service">panner</property>
   <property name="internal_added">237</property>
   <property name="start">0.5</property>
   <property name="disable">1</property>
  </filter>
  <filter id="filter2">
   <property name="iec_scale">0</property>
   <property name="mlt_service">audiolevel</property>
   <property name="disable">1</property>
  </filter>
 </tractor>
 <playlist id="playlist2">
  <property name="kdenlive:audio_track">1</property>
 </playlist>
 <playlist id="playlist3">
  <property name="kdenlive:audio_track">1</property>
 </playlist>
 <tractor id="tractor1" in="00:00:00.000">
  <property name="kdenlive:audio_track">1</property>
  <property name="kdenlive:trackheight">69</property>
  <property name="kdenlive:timeline_active">1</property>
  <property name="kdenlive:collapsed">0</property>
  <property name="kdenlive:thumbs_format"/>
  <property name="kdenlive:audio_rec"/>
  <track hide="video" producer="playlist2"/>
  <track hide="video" producer="playlist3"/>
  <filter id="filter3">
   <property name="window">75</property>
   <property name="max_gain">20dB</property>
   <property name="mlt_service">volume</property>
   <property name="internal_added">237</property>
   <property name="disable">1</property>
  </filter>
  <filter id="filter4">
   <property name="channel">-1</property>
   <property name="mlt_service">panner</property>
   <property name="internal_added">237</property>
   <property name="start">0.5</property>
   <property name="disable">1</property>
  </filter>
  <filter id="filter5">
   <property name="iec_scale">0</property>
   <property name="mlt_service">audiolevel</property>
   <property name="disable">1</property>
  </filter>
 </tractor>
 <playlist id="playlist4">
  <entry producer="producer1" in="00:00:00.000" out="00:00:02.720">
   <property name="kdenlive:id">4</property>
  </entry>
 </playlist>
 <playlist id="playlist5"/>
 <tractor id="tractor2" in="00:00:00.000" out="00:00:02.720">
  <property name="kdenlive:trackheight">69</property>
  <property name="kdenlive:timeline_active">1</property>
  <property name="kdenlive:collapsed">0</property>
  <property name="kdenlive:thumbs_format"/>
  <property name="kdenlive:audio_rec"/>
  <track hide="audio" producer="playlist4"/>
  <track hide="audio" producer="playlist5"/>
 </tractor>
 <producer id="producer8" in="00:00:00.000" out="00:00:24.560">
  <property name="length">615</property>
  <property name="eof">pause</property>
  <property name="resource">1.700000:table_slider_plot_run_3.mp4</property>
  <property name="aspect_ratio">1</property>
  <property name="meta.media.nb_streams">1</property>
  <property name="meta.media.0.stream.type">video</property>
  <property name="meta.media.0.stream.frame_rate">5</property>
  <property name="meta.media.0.stream.sample_aspect_ratio">1</property>
  <property name="meta.media.0.codec.width">1284</property>
  <property name="meta.media.0.codec.height">668</property>
  <property name="meta.media.0.codec.rotate">0</property>
  <property name="meta.media.0.codec.pix_fmt">yuv444p</property>
  <property name="meta.media.0.codec.sample_aspect_ratio">1</property>
  <property name="meta.media.0.codec.colorspace">709</property>
  <property name="meta.media.0.codec.color_trc">1</property>
  <property name="meta.media.0.codec.name">h264</property>
  <property name="meta.media.0.codec.long_name">H.264 / AVC / MPEG-4 AVC / MPEG-4 part 10</property>
  <property name="meta.media.0.codec.bit_rate">328090</property>
  <property name="meta.attr.0.stream.creation_time.markup">2023-03-12T16:44:19.000000Z</property>
  <property name="meta.attr.0.stream.handler_name.markup">VideoHandler</property>
  <property name="meta.attr.0.stream.vendor_id.markup">[0][0][0][0]</property>
  <property name="meta.attr.major_brand.markup">mp42</property>
  <property name="meta.attr.minor_version.markup">0</property>
  <property name="meta.attr.compatible_brands.markup">mp42mp41isomiso2</property>
  <property name="meta.attr.creation_time.markup">2023-03-12T16:44:19.000000Z</property>
  <property name="meta.attr.encoder.markup">x264</property>
  <property name="seekable">1</property>
  <property name="meta.media.sample_aspect_num">1</property>
  <property name="meta.media.sample_aspect_den">1</property>
  <property name="audio_index">-1</property>
  <property name="video_index">0</property>
  <property name="mute_on_pause">1</property>
  <property name="warp_speed">1.7</property>
  <property name="warp_resource">table_slider_plot_run_3.mp4</property>
  <property name="mlt_service">timewarp</property>
  <property name="set.test_audio">1</property>
  <property name="set.test_image">0</property>
  <property name="kdenlive:id">10</property>
  <property name="warp_pitch">0</property>
  <property name="meta.media.frame_rate_num">5</property>
  <property name="meta.media.frame_rate_den">1</property>
  <property name="meta.media.colorspace">709</property>
  <property name="meta.media.color_trc">1</property>
  <property name="meta.media.has_b_frames">0</property>
  <property name="meta.media.width">1284</property>
  <property name="meta.media.height">668</property>
  <property name="meta.media.color_range">mpeg</property>
  <property name="meta.media.top_field_first">0</property>
  <property name="meta.media.progressive">1</property>
 </producer>
 <producer id="producer9" in="00:00:00.000" out="00:00:27.840">
  <property name="length">697</property>
  <property name="eof">pause</property>
  <property name="resource">1.500000:table_slider_plot_run_3.mp4</property>
  <property name="aspect_ratio">1</property>
  <property name="meta.media.nb_streams">1</property>
  <property name="meta.media.0.stream.type">video</property>
  <property name="meta.media.0.stream.frame_rate">5</property>
  <property name="meta.media.0.stream.sample_aspect_ratio">1</property>
  <property name="meta.media.0.codec.width">1284</property>
  <property name="meta.media.0.codec.height">668</property>
  <property name="meta.media.0.codec.rotate">0</property>
  <property name="meta.media.0.codec.pix_fmt">yuv444p</property>
  <property name="meta.media.0.codec.sample_aspect_ratio">1</property>
  <property name="meta.media.0.codec.colorspace">709</property>
  <property name="meta.media.0.codec.color_trc">1</property>
  <property name="meta.media.0.codec.name">h264</property>
  <property name="meta.media.0.codec.long_name">H.264 / AVC / MPEG-4 AVC / MPEG-4 part 10</property>
  <property name="meta.media.0.codec.bit_rate">328090</property>
  <property name="meta.attr.0.stream.creation_time.markup">2023-03-12T16:44:19.000000Z</property>
  <property name="meta.attr.0.stream.handler_name.markup">VideoHandler</property>
  <property name="meta.attr.0.stream.vendor_id.markup">[0][0][0][0]</property>
  <property name="meta.attr.major_brand.markup">mp42</property>
  <property name="meta.attr.minor_version.markup">0</property>
  <property name="meta.attr.compatible_brands.markup">mp42mp41isomiso2</property>
  <property name="meta.attr.creation_time.markup">2023-03-12T16:44:19.000000Z</property>
  <property name="meta.attr.encoder.markup">x264</property>
  <property name="seekable">1</property>
  <property name="meta.media.sample_aspect_num">1</property>
  <property name="meta.media.sample_aspect_den">1</property>
  <property name="audio_index">-1</property>
  <property name="video_index">0</property>
  <property name="mute_on_pause">1</property>
  <property name="warp_speed">1.5</property>
  <property name="warp_resource">table_slider_plot_run_3.mp4</property>
  <property name="mlt_service">timewarp</property>
  <property name="set.test_audio">1</property>
  <property name="set.test_image">0</property>
  <property name="kdenlive:id">10</property>
  <property name="warp_pitch">0</property>
  <property name="meta.media.frame_rate_num">5</property>
  <property name="meta.media.frame_rate_den">1</property>
  <property name="meta.media.colorspace">709</property>
  <property name="meta.media.color_trc">1</property>
  <property name="meta.media.has_b_frames">0</property>
  <property name="meta.media.width">1284</property>
  <property name="meta.media.height">668</property>
  <property name="meta.media.color_range">mpeg</property>
  <property name="meta.media.top_field_first">0</property>
  <property name="meta.media.progressive">1</property>
 </producer>
 <producer id="producer10" in="00:00:00.000" out="00:00:41.760">
  <property name="length">1045</property>
  <property name="eof">pause</property>
  <property name="resource">table_slider_plot_run_3.mp4</property>
  <property name="audio_index">-1</property>
  <property name="video_index">0</property>
  <property name="mute_on_pause">0</property>
  <property name="mlt_service">avformat-novalidate</property>
  <property name="seekable">1</property>
  <property name="aspect_ratio">1</property>
  <property name="kdenlive:clipname"/>
  <property name="kdenlive:folderid">-1</property>
  <property name="kdenlive:id">10</property>
  <property name="kdenlive:file_size">1716050</property>
  <property name="kdenlive:file_hash">2a04e315e140be8a65a7c3ffe44db510</property>
  <property name="xml">was here</property>
  <property name="meta.media.nb_streams">1</property>
  <property name="meta.media.0.stream.type">video</property>
  <property name="meta.media.0.stream.frame_rate">5</property>
  <property name="meta.media.0.stream.sample_aspect_ratio">1</property>
  <property name="meta.media.0.codec.width">1284</property>
  <property name="meta.media.0.codec.height">668</property>
  <property name="meta.media.0.codec.rotate">0</property>
  <property name="meta.media.0.codec.pix_fmt">yuv444p</property>
  <property name="meta.media.0.codec.sample_aspect_ratio">1</property>
  <property name="meta.media.0.codec.colorspace">709</property>
  <property name="meta.media.0.codec.color_trc">1</property>
  <property name="meta.media.0.codec.name">h264</property>
  <property name="meta.media.0.codec.long_name">H.264 / AVC / MPEG-4 AVC / MPEG-4 part 10</property>
  <property name="meta.media.0.codec.bit_rate">328090</property>
  <property name="meta.attr.0.stream.creation_time.markup">2023-03-12T16:44:19.000000Z</property>
  <property name="meta.attr.0.stream.handler_name.markup">VideoHandler</property>
  <property name="meta.attr.0.stream.vendor_id.markup">[0][0][0][0]</property>
  <property name="meta.attr.major_brand.markup">mp42</property>
  <property name="meta.attr.minor_version.markup">0</property>
  <property name="meta.attr.compatible_brands.markup">mp42mp41isomiso2</property>
  <property name="meta.attr.creation_time.markup">2023-03-12T16:44:19.000000Z</property>
  <property name="meta.attr.encoder.markup">x264</property>
  <property name="meta.media.sample_aspect_num">1</property>
  <property name="meta.media.sample_aspect_den">1</property>
  <property name="meta.media.frame_rate_num">5</property>
  <property name="meta.media.frame_rate_den">1</property>
  <property name="meta.media.colorspace">709</property>
  <property name="meta.media.color_trc">1</property>
  <property name="meta.media.has_b_frames">0</property>
  <property name="meta.media.width">1284</property>
  <property name="meta.media.height">668</property>
  <property name="meta.media.color_range">mpeg</property>
  <property name="meta.media.top_field_first">0</property>
  <property name="meta.media.progressive">1</property>
  <property name="set.test_audio">1</property>
  <property name="set.test_image">0</property>
 </producer>
 <producer id="producer11" in="00:00:00.000" out="00:00:27.840">
  <property name="length">697</property>
  <property name="eof">pause</property>
  <property name="resource">1.500000:table_slider_plot_run_3.mp4</property>
  <property name="aspect_ratio">1</property>
  <property name="meta.media.nb_streams">1</property>
  <property name="meta.media.0.stream.type">video</property>
  <property name="meta.media.0.stream.frame_rate">5</property>
  <property name="meta.media.0.stream.sample_aspect_ratio">1</property>
  <property name="meta.media.0.codec.width">1284</property>
  <property name="meta.media.0.codec.height">668</property>
  <property name="meta.media.0.codec.rotate">0</property>
  <property name="meta.media.0.codec.pix_fmt">yuv444p</property>
  <property name="meta.media.0.codec.sample_aspect_ratio">1</property>
  <property name="meta.media.0.codec.colorspace">709</property>
  <property name="meta.media.0.codec.color_trc">1</property>
  <property name="meta.media.0.codec.name">h264</property>
  <property name="meta.media.0.codec.long_name">H.264 / AVC / MPEG-4 AVC / MPEG-4 part 10</property>
  <property name="meta.media.0.codec.bit_rate">328090</property>
  <property name="meta.attr.0.stream.creation_time.markup">2023-03-12T16:44:19.000000Z</property>
  <property name="meta.attr.0.stream.handler_name.markup">VideoHandler</property>
  <property name="meta.attr.0.stream.vendor_id.markup">[0][0][0][0]</property>
  <property name="meta.attr.major_brand.markup">mp42</property>
  <property name="meta.attr.minor_version.markup">0</property>
  <property name="meta.attr.compatible_brands.markup">mp42mp41isomiso2</property>
  <property name="meta.attr.creation_time.markup">2023-03-12T16:44:19.000000Z</property>
  <property name="meta.attr.encoder.markup">x264</property>
  <property name="seekable">1</property>
  <property name="meta.media.sample_aspect_num">1</property>
  <property name="meta.media.sample_aspect_den">1</property>
  <property name="audio_index">-1</property>
  <property name="video_index">0</property>
  <property name="mute_on_pause">1</property>
  <property name="warp_speed">1.5</property>
  <property name="warp_resource">table_slider_plot_run_3.mp4</property>
  <property name="mlt_service">timewarp</property>
  <property name="set.test_audio">1</property>
  <property name="set.test_image">0</property>
  <property name="kdenlive:id">10</property>
  <property name="warp_pitch">0</property>
  <property name="meta.media.frame_rate_num">5</property>
  <property name="meta.media.frame_rate_den">1</property>
  <property name="meta.media.colorspace">709</property>
  <property name="meta.media.color_trc">1</property>
  <property name="meta.media.has_b_frames">0</property>
  <property name="meta.media.width">1284</property>
  <property name="meta.media.height">668</property>
  <property name="meta.media.color_range">mpeg</property>
  <property name="meta.media.top_field_first">0</property>
  <property name="meta.media.progressive">1</property>
 </producer>
 <producer id="producer12" in="00:00:00.000" out="00:00:24.560">
  <property name="length">615</property>
  <property name="eof">pause</property>
  <property name="resource">1.700000:table_slider_plot_run_3.mp4</property>
  <property name="aspect_ratio">1</property>
  <property name="meta.media.nb_streams">1</property>
  <property name="meta.media.0.stream.type">video</property>
  <property name="meta.media.0.stream.frame_rate">5</property>
  <property name="meta.media.0.stream.sample_aspect_ratio">1</property>
  <property name="meta.media.0.codec.width">1284</property>
  <property name="meta.media.0.codec.height">668</property>
  <property name="meta.media.0.codec.rotate">0</property>
  <property name="meta.media.0.codec.pix_fmt">yuv444p</property>
  <property name="meta.media.0.codec.sample_aspect_ratio">1</property>
  <property name="meta.media.0.codec.colorspace">709</property>
  <property name="meta.media.0.codec.color_trc">1</property>
  <property name="meta.media.0.codec.name">h264</property>
  <property name="meta.media.0.codec.long_name">H.264 / AVC / MPEG-4 AVC / MPEG-4 part 10</property>
  <property name="meta.media.0.codec.bit_rate">328090</property>
  <property name="meta.attr.0.stream.creation_time.markup">2023-03-12T16:44:19.000000Z</property>
  <property name="meta.attr.0.stream.handler_name.markup">VideoHandler</property>
  <property name="meta.attr.0.stream.vendor_id.markup">[0][0][0][0]</property>
  <property name="meta.attr.major_brand.markup">mp42</property>
  <property name="meta.attr.minor_version.markup">0</property>
  <property name="meta.attr.compatible_brands.markup">mp42mp41isomiso2</property>
  <property name="meta.attr.creation_time.markup">2023-03-12T16:44:19.000000Z</property>
  <property name="meta.attr.encoder.markup">x264</property>
  <property name="seekable">1</property>
  <property name="meta.media.sample_aspect_num">1</property>
  <property name="meta.media.sample_aspect_den">1</property>
  <property name="audio_index">-1</property>
  <property name="video_index">0</property>
  <property name="mute_on_pause">1</property>
  <property name="warp_speed">1.7</property>
  <property name="warp_resource">table_slider_plot_run_3.mp4</property>
  <property name="mlt_service">timewarp</property>
  <property name="set.test_audio">1</property>
  <property name="set.test_image">0</property>
  <property name="kdenlive:id">10</property>
  <property name="warp_pitch">0</property>
  <property name="meta.media.frame_rate_num">5</property>
  <property name="meta.media.frame_rate_den">1</property>
  <property name="meta.media.colorspace">709</property>
  <property name="meta.media.color_trc">1</property>
  <property name="meta.media.has_b_frames">0</property>
  <property name="meta.media.width">1284</property>
  <property name="meta.media.height">668</property>
  <property name="meta.media.color_range">mpeg</property>
  <property name="meta.media.top_field_first">0</property>
  <property name="meta.media.progressive">1</property>
 </producer>
 <producer id="producer13" in="00:00:00.000" out="00:00:24.560">
  <property name="length">615</property>
  <property name="eof">pause</property>
  <property name="resource">1.700000:table_slider_plot_run_3.mp4</property>
  <property name="aspect_ratio">1</property>
  <property name="meta.media.nb_streams">1</property>
  <property name="meta.media.0.stream.type">video</property>
  <property name="meta.media.0.stream.frame_rate">5</property>
  <property name="meta.media.0.stream.sample_aspect_ratio">1</property>
  <property name="meta.media.0.codec.width">1284</property>
  <property name="meta.media.0.codec.height">668</property>
  <property name="meta.media.0.codec.rotate">0</property>
  <property name="meta.media.0.codec.pix_fmt">yuv444p</property>
  <property name="meta.media.0.codec.sample_aspect_ratio">1</property>
  <property name="meta.media.0.codec.colorspace">709</property>
  <property name="meta.media.0.codec.color_trc">1</property>
  <property name="meta.media.0.codec.name">h264</property>
  <property name="meta.media.0.codec.long_name">H.264 / AVC / MPEG-4 AVC / MPEG-4 part 10</property>
  <property name="meta.media.0.codec.bit_rate">328090</property>
  <property name="meta.attr.0.stream.creation_time.markup">2023-03-12T16:44:19.000000Z</property>
  <property name="meta.attr.0.stream.handler_name.markup">VideoHandler</property>
  <property name="meta.attr.0.stream.vendor_id.markup">[0][0][0][0]</property>
  <property name="meta.attr.major_brand.markup">mp42</property>
  <property name="meta.attr.minor_version.markup">0</property>
  <property name="meta.attr.compatible_brands.markup">mp42mp41isomiso2</property>
  <property name="meta.attr.creation_time.markup">2023-03-12T16:44:19.000000Z</property>
  <property name="meta.attr.encoder.markup">x264</property>
  <property name="seekable">1</property>
  <property name="meta.media.sample_aspect_num">1</property>
  <property name="meta.media.sample_aspect_den">1</property>
  <property name="audio_index">-1</property>
  <property name="video_index">0</property>
  <property name="mute_on_pause">1</property>
  <property name="warp_speed">1.7</property>
  <property name="warp_resource">table_slider_plot_run_3.mp4</property>
  <property name="mlt_service">timewarp</property>
  <property name="set.test_audio">1</property>
  <property name="set.test_image">0</property>
  <property name="kdenlive:id">10</property>
  <property name="warp_pitch">0</property>
  <property name="meta.media.frame_rate_num">5</property>
  <property name="meta.media.frame_rate_den">1</property>
  <property name="meta.media.colorspace">709</property>
  <property name="meta.media.color_trc">1</property>
  <property name="meta.media.has_b_frames">0</property>
  <property name="meta.media.width">1284</property>
  <property name="meta.media.height">668</property>
  <property name="meta.media.color_range">mpeg</property>
  <property name="meta.media.top_field_first">0</property>
  <property name="meta.media.progressive">1</property>
 </producer>
 <playlist id="playlist6">
  <entry producer="producer2" in="00:00:00.000" out="00:00:02.720">
   <property name="kdenlive:id">6</property>
  </entry>
  <entry producer="producer4" in="00:00:00.000" out="00:00:02.560">
   <property name="kdenlive:id">8</property>
  </entry>
  <blank length="00:00:05.960"/>
  <entry producer="producer8" in="00:00:09.360" out="00:00:09.960">
   <property name="kdenlive:id">10</property>
  </entry>
  <entry producer="producer9" in="00:00:11.760" out="00:00:14.000">
   <property name="kdenlive:id">10</property>
  </entry>
  <entry producer="producer10" in="00:00:23.080" out="00:00:23.120">
   <property name="kdenlive:id">10</property>
  </entry>
  <entry producer="producer11" in="00:00:15.520" out="00:00:15.680">
   <property name="kdenlive:id">10</property>
  </entry>
  <entry producer="producer12" in="00:00:14.200" out="00:00:14.760">
   <property name="kdenlive:id">10</property>
  </entry>
  <entry producer="producer13" in="00:00:15.360" out="00:00:22.400">
   <property name="kdenlive:id">10</property>
  </entry>
 </playlist>
 <producer id="producer14" in="00:00:00.000" out="00:00:24.560">
  <property name="length">615</property>
  <property name="eof">pause</property>
  <property name="resource">1.700000:table_slider_plot_run_3.mp4</property>
  <property name="aspect_ratio">1</property>
  <property name="meta.media.nb_streams">1</property>
  <property name="meta.media.0.stream.type">video</property>
  <property name="meta.media.0.stream.frame_rate">5</property>
  <property name="meta.media.0.stream.sample_aspect_ratio">1</property>
  <property name="meta.media.0.codec.width">1284</property>
  <property name="meta.media.0.codec.height">668</property>
  <property name="meta.media.0.codec.rotate">0</property>
  <property name="meta.media.0.codec.pix_fmt">yuv444p</property>
  <property name="meta.media.0.codec.sample_aspect_ratio">1</property>
  <property name="meta.media.0.codec.colorspace">709</property>
  <property name="meta.media.0.codec.color_trc">1</property>
  <property name="meta.media.0.codec.name">h264</property>
  <property name="meta.media.0.codec.long_name">H.264 / AVC / MPEG-4 AVC / MPEG-4 part 10</property>
  <property name="meta.media.0.codec.bit_rate">328090</property>
  <property name="meta.attr.0.stream.creation_time.markup">2023-03-12T16:44:19.000000Z</property>
  <property name="meta.attr.0.stream.handler_name.markup">VideoHandler</property>
  <property name="meta.attr.0.stream.vendor_id.markup">[0][0][0][0]</property>
  <property name="meta.attr.major_brand.markup">mp42</property>
  <property name="meta.attr.minor_version.markup">0</property>
  <property name="meta.attr.compatible_brands.markup">mp42mp41isomiso2</property>
  <property name="meta.attr.creation_time.markup">2023-03-12T16:44:19.000000Z</property>
  <property name="meta.attr.encoder.markup">x264</property>
  <property name="seekable">1</property>
  <property name="meta.media.sample_aspect_num">1</property>
  <property name="meta.media.sample_aspect_den">1</property>
  <property name="audio_index">-1</property>
  <property name="video_index">0</property>
  <property name="mute_on_pause">1</property>
  <property name="warp_speed">1.7</property>
  <property name="warp_resource">table_slider_plot_run_3.mp4</property>
  <property name="mlt_service">timewarp</property>
  <property name="set.test_audio">1</property>
  <property name="set.test_image">0</property>
  <property name="kdenlive:id">10</property>
  <property name="warp_pitch">0</property>
  <property name="meta.media.frame_rate_num">5</property>
  <property name="meta.media.frame_rate_den">1</property>
  <property name="meta.media.colorspace">709</property>
  <property name="meta.media.color_trc">1</property>
  <property name="meta.media.has_b_frames">0</property>
  <property name="meta.media.width">1284</property>
  <property name="meta.media.height">668</property>
  <property name="meta.media.color_range">mpeg</property>
  <property name="meta.media.top_field_first">0</property>
  <property name="meta.media.progressive">1</property>
 </producer>
 <playlist id="playlist7">
  <blank length="00:00:04.360"/>
  <entry producer="producer14" in="00:00:00.000" out="00:00:06.920">
   <property name="kdenlive:id">10</property>
  </entry>
 </playlist>
 <tractor id="tractor3" in="00:00:00.000" out="00:00:22.160">
  <property name="kdenlive:track_name">V3</property>
  <property name="kdenlive:trackheight">69</property>
  <property name="kdenlive:timeline_active">1</property>
  <track producer="playlist6"/>
  <track producer="playlist7"/>
  <transition id="transition0" in="00:00:04.360" out="00:00:05.360">
   <property name="a_track">0</property>
   <property name="b_track">1</property>
   <property name="factory">loader</property>
   <property name="resource"/>
   <property name="mlt_service">luma</property>
   <property name="kdenlive_id">luma</property>
   <property name="kdenlive:mixcut">25</property>
   <property name="softness">0</property>
   <property name="alpha_over">1</property>
   <property name="reverse">0</property>
  </transition>
 </tractor>
 <playlist id="playlist8"/>
 <playlist id="playlist9"/>
 <tractor id="tractor4" in="00:00:00.000">
  <property name="kdenlive:trackheight">69</property>
  <property name="kdenlive:timeline_active">1</property>
  <property name="kdenlive:collapsed">0</property>
  <property name="kdenlive:thumbs_format"/>
  <property name="kdenlive:audio_rec"/>
  <track hide="audio" producer="playlist8"/>
  <track hide="audio" producer="playlist9"/>
 </tractor>
 <tractor id="tractor5" in="00:00:00.000" out="00:20:22.200">
  <track producer="black_track"/>
  <track producer="tractor0"/>
  <track producer="tractor1"/>
  <track producer="tractor2"/>
  <track producer="tractor3"/>
  <track producer="tractor4"/>
  <transition id="transition1">
   <property name="a_track">0</property>
   <property name="b_track">1</property>
   <property name="mlt_service">mix</property>
   <property name="kdenlive_id">mix</property>
   <property name="internal_added">237</property>
   <property name="always_active">1</property>
   <property name="accepts_blanks">1</property>
   <property name="sum">1</property>
  </transition>
  <transition id="transition2">
   <property name="a_track">0</property>
   <property name="b_track">2</property>
   <property name="mlt_service">mix</property>
   <property name="kdenlive_id">mix</property>
   <property name="internal_added">237</property>
   <property name="always_active">1</property>
   <property name="accepts_blanks">1</property>
   <property name="sum">1</property>
  </transition>
  <transition id="transition3">
   <property name="a_track">0</property>
   <property name="b_track">3</property>
   <property name="version">0.9</property>
   <property name="mlt_service">frei0r.cairoblend</property>
   <property name="kdenlive_id">frei0r.cairoblend</property>
   <property name="internal_added">237</property>
   <property name="always_active">1</property>
  </transition>
  <transition id="transition4">
   <property name="a_track">0</property>
   <property name="b_track">4</property>
   <property name="version">0.9</property>
   <property name="mlt_service">frei0r.cairoblend</property>
   <property name="kdenlive_id">frei0r.cairoblend</property>
   <property name="internal_added">237</property>
   <property name="always_active">1</property>
  </transition>
  <transition id="transition5">
   <property name="a_track">0</property>
   <property name="b_track">5</property>
   <property name="version">0.9</property>
   <property name="mlt_service">frei0r.cairoblend</property>
   <property name="kdenlive_id">frei0r.cairoblend</property>
   <property name="internal_added">237</property>
   <property name="always_active">1</property>
  </transition>
  <filter id="filter6">
   <property name="window">75</property>
   <property name="max_gain">20dB</property>
   <property name="mlt_service">volume</property>
   <property name="internal_added">237</property>
   <property name="disable">1</property>
  </filter>
  <filter id="filter7">
   <property name="channel">-1</property>
   <property name="mlt_service">panner</property>
   <property name="internal_added">237</property>
   <property name="start">0.5</property>
   <property name="disable">1</property>
  </filter>
  <filter id="filter8">
   <property name="iec_scale">0</property>
   <property name="mlt_service">audiolevel</property>
   <property name="disable">1</property>
  </filter>
 </tractor>
</mlt>
