<?xml version='1.0' encoding='utf-8'?>
<mlt LC_NUMERIC="C" producer="main_bin" version="7.4.0" root="/home/forrest/repos/funix-doc/videos">
 <profile frame_rate_num="25" sample_aspect_num="1" display_aspect_den="5" colorspace="709" progressive="1" description="2560x1600 25.00fps" display_aspect_num="8" frame_rate_den="1" width="2560" height="1600" sample_aspect_den="1"/>
 <producer id="producer0" in="00:00:00.000" out="00:00:05.760">
  <property name="length">145</property>
  <property name="eof">pause</property>
  <property name="resource">0xffffffff</property>
  <property name="aspect_ratio">1</property>
  <property name="mlt_service">color</property>
  <property name="kdenlive:clipname">White BG</property>
  <property name="kdenlive:duration">00:00:05.000</property>
  <property name="kdenlive:folderid">-1</property>
  <property name="kdenlive:id">2</property>
  <property name="kdenlive:file_hash">039b56a692cd66eefeea44a17539e5a2</property>
  <property name="mlt_image_format">rgb</property>
 </producer>
 <producer id="producer5" in="00:00:00.000" out="00:00:04.960">
  <property name="length">125</property>
  <property name="eof">pause</property>
  <property name="resource"/>
  <property name="progressive">1</property>
  <property name="aspect_ratio">1</property>
  <property name="seekable">1</property>
  <property name="mlt_service">kdenlivetitle</property>
  <property name="kdenlive:duration">125</property>
  <property name="kdenlive:clipname">title:ChatGPT</property>
  <property name="xmldata">&lt;kdenlivetitle duration="125" LC_NUMERIC="C" width="2560" height="1600" out="124">
 &lt;item type="QGraphicsTextItem" z-index="0">
  &lt;position x="524" y="612">
   &lt;transform>1,0,0,0,1,0,0,0,1&lt;/transform>
  &lt;/position>
  &lt;content line-spacing="0" shadow="0;#64000000;3;3;3" font-underline="0" box-height="308" font-outline-color="0,0,0,255" font="FreeSans" letter-spacing="0" font-pixel-size="140" font-italic="0" typewriter="1;2;1;0;0" alignment="4" font-weight="75" font-outline="0" box-width="1595.09" font-color="0,0,0,255">Build ChatGPT app in 
just two addtional lines.&lt;/content>
 &lt;/item>
 &lt;startviewport rect="0,0,2560,1600"/>
 &lt;endviewport rect="0,0,2560,1600"/>
 &lt;background color="0,0,0,0"/>
&lt;/kdenlivetitle>
</property>
  <property name="kdenlive:folderid">14</property>
  <property name="kdenlive:id">3</property>
  <property name="kdenlive:file_hash">0e768b87e331533d9166c773db129ce7</property>
  <property name="force_reload">0</property>
  <property name="meta.media.width">2560</property>
  <property name="meta.media.height">1600</property>
 </producer>
 <producer id="producer1" in="00:00:00.000" out="00:00:49.160">
  <property name="length">1230</property>
  <property name="eof">pause</property>
  <property name="resource">ppt_raw.mp4</property>
  <property name="audio_index">-1</property>
  <property name="video_index">0</property>
  <property name="mute_on_pause">0</property>
  <property name="mlt_service">avformat-novalidate</property>
  <property name="meta.media.nb_streams">1</property>
  <property name="meta.media.0.stream.type">video</property>
  <property name="meta.media.0.stream.frame_rate">24</property>
  <property name="meta.media.0.stream.sample_aspect_ratio">1</property>
  <property name="meta.media.0.codec.width">2560</property>
  <property name="meta.media.0.codec.height">1600</property>
  <property name="meta.media.0.codec.rotate">0</property>
  <property name="meta.media.0.codec.pix_fmt">yuv444p</property>
  <property name="meta.media.0.codec.sample_aspect_ratio">1</property>
  <property name="meta.media.0.codec.colorspace">709</property>
  <property name="meta.media.0.codec.color_trc">1</property>
  <property name="meta.media.0.codec.name">h264</property>
  <property name="meta.media.0.codec.long_name">H.264 / AVC / MPEG-4 AVC / MPEG-4 part 10</property>
  <property name="meta.media.0.codec.bit_rate">985693</property>
  <property name="meta.attr.0.stream.creation_time.markup">2023-03-06T21:29:21.000000Z</property>
  <property name="meta.attr.0.stream.handler_name.markup">VideoHandler</property>
  <property name="meta.attr.0.stream.vendor_id.markup">[0][0][0][0]</property>
  <property name="meta.attr.major_brand.markup">mp42</property>
  <property name="meta.attr.minor_version.markup">0</property>
  <property name="meta.attr.compatible_brands.markup">mp42mp41isomiso2</property>
  <property name="meta.attr.creation_time.markup">2023-03-06T21:29:21.000000Z</property>
  <property name="meta.attr.encoder.markup">x264</property>
  <property name="seekable">1</property>
  <property name="meta.media.sample_aspect_num">1</property>
  <property name="meta.media.sample_aspect_den">1</property>
  <property name="aspect_ratio">1</property>
  <property name="kdenlive:clipname">0_PPT</property>
  <property name="kdenlive:folderid">-1</property>
  <property name="kdenlive:file_size">6068705</property>
  <property name="meta.media.frame_rate_num">24</property>
  <property name="meta.media.frame_rate_den">1</property>
  <property name="meta.media.colorspace">709</property>
  <property name="meta.media.color_trc">1</property>
  <property name="meta.media.has_b_frames">0</property>
  <property name="meta.media.width">2560</property>
  <property name="meta.media.height">1600</property>
  <property name="meta.media.color_range">mpeg</property>
  <property name="kdenlive:id">4</property>
  <property name="kdenlive:file_hash">586df902b2a76bac42572716b62fb00e</property>
  <property name="meta.media.top_field_first">0</property>
  <property name="meta.media.progressive">1</property>
 </producer>
 <producer id="producer2" in="00:00:00.000" out="00:00:06.080">
  <property name="length">153</property>
  <property name="eof">pause</property>
  <property name="resource">AI_story/1_AI_code.mp4</property>
  <property name="audio_index">-1</property>
  <property name="video_index">0</property>
  <property name="mute_on_pause">0</property>
  <property name="mlt_service">avformat-novalidate</property>
  <property name="meta.media.nb_streams">1</property>
  <property name="meta.media.0.stream.type">video</property>
  <property name="meta.media.0.stream.frame_rate">24</property>
  <property name="meta.media.0.stream.sample_aspect_ratio">1</property>
  <property name="meta.media.0.codec.width">1268</property>
  <property name="meta.media.0.codec.height">772</property>
  <property name="meta.media.0.codec.rotate">0</property>
  <property name="meta.media.0.codec.pix_fmt">yuv444p</property>
  <property name="meta.media.0.codec.sample_aspect_ratio">1</property>
  <property name="meta.media.0.codec.colorspace">709</property>
  <property name="meta.media.0.codec.color_trc">1</property>
  <property name="meta.media.0.codec.name">h264</property>
  <property name="meta.media.0.codec.long_name">H.264 / AVC / MPEG-4 AVC / MPEG-4 part 10</property>
  <property name="meta.media.0.codec.bit_rate">364920</property>
  <property name="meta.attr.0.stream.creation_time.markup">2023-03-07T03:40:47.000000Z</property>
  <property name="meta.attr.0.stream.handler_name.markup">VideoHandler</property>
  <property name="meta.attr.0.stream.vendor_id.markup">[0][0][0][0]</property>
  <property name="meta.attr.major_brand.markup">mp42</property>
  <property name="meta.attr.minor_version.markup">0</property>
  <property name="meta.attr.compatible_brands.markup">mp42mp41isomiso2</property>
  <property name="meta.attr.creation_time.markup">2023-03-07T03:40:47.000000Z</property>
  <property name="meta.attr.encoder.markup">x264</property>
  <property name="seekable">1</property>
  <property name="meta.media.sample_aspect_num">1</property>
  <property name="meta.media.sample_aspect_den">1</property>
  <property name="aspect_ratio">1</property>
  <property name="kdenlive:clipname"/>
  <property name="kdenlive:folderid">14</property>
  <property name="meta.media.frame_rate_num">24</property>
  <property name="meta.media.frame_rate_den">1</property>
  <property name="meta.media.colorspace">709</property>
  <property name="meta.media.color_trc">1</property>
  <property name="meta.media.has_b_frames">0</property>
  <property name="meta.media.width">1268</property>
  <property name="meta.media.height">772</property>
  <property name="meta.media.color_range">mpeg</property>
  <property name="kdenlive:id">5</property>
  <property name="kdenlive:file_size">280902</property>
  <property name="kdenlive:file_hash">ae9c2ef0c781aef9c7511b2d370fb218</property>
  <property name="meta.media.top_field_first">0</property>
  <property name="meta.media.progressive">1</property>
 </producer>
 <producer id="producer3" in="00:00:00.000" out="00:00:08.640">
  <property name="length">217</property>
  <property name="eof">pause</property>
  <property name="resource">AI_story/1_AI_code.png</property>
  <property name="ttl">25</property>
  <property name="aspect_ratio">1</property>
  <property name="progressive">1</property>
  <property name="seekable">1</property>
  <property name="meta.media.width">2560</property>
  <property name="meta.media.height">1600</property>
  <property name="mlt_service">qimage</property>
  <property name="kdenlive:clipname"/>
  <property name="kdenlive:duration">00:00:05.000</property>
  <property name="kdenlive:folderid">14</property>
  <property name="kdenlive:id">6</property>
  <property name="kdenlive:file_size">897351</property>
  <property name="kdenlive:file_hash">75722a5721ed18515bf6341ca4545930</property>
 </producer>
 <producer id="producer4" in="00:00:00.000" out="00:00:12.200">
  <property name="length">306</property>
  <property name="eof">pause</property>
  <property name="resource">AI_story/1_AI_web.mp4</property>
  <property name="audio_index">-1</property>
  <property name="video_index">0</property>
  <property name="mute_on_pause">0</property>
  <property name="mlt_service">avformat-novalidate</property>
  <property name="meta.media.nb_streams">1</property>
  <property name="meta.media.0.stream.type">video</property>
  <property name="meta.media.0.stream.frame_rate">24</property>
  <property name="meta.media.0.stream.sample_aspect_ratio">1</property>
  <property name="meta.media.0.codec.width">1628</property>
  <property name="meta.media.0.codec.height">1032</property>
  <property name="meta.media.0.codec.rotate">0</property>
  <property name="meta.media.0.codec.pix_fmt">yuv444p</property>
  <property name="meta.media.0.codec.sample_aspect_ratio">1</property>
  <property name="meta.media.0.codec.colorspace">709</property>
  <property name="meta.media.0.codec.color_trc">1</property>
  <property name="meta.media.0.codec.name">h264</property>
  <property name="meta.media.0.codec.long_name">H.264 / AVC / MPEG-4 AVC / MPEG-4 part 10</property>
  <property name="meta.media.0.codec.bit_rate">277356</property>
  <property name="meta.attr.0.stream.creation_time.markup">2023-03-07T03:45:05.000000Z</property>
  <property name="meta.attr.0.stream.handler_name.markup">VideoHandler</property>
  <property name="meta.attr.0.stream.vendor_id.markup">[0][0][0][0]</property>
  <property name="meta.attr.major_brand.markup">mp42</property>
  <property name="meta.attr.minor_version.markup">0</property>
  <property name="meta.attr.compatible_brands.markup">mp42mp41isomiso2</property>
  <property name="meta.attr.creation_time.markup">2023-03-07T03:45:05.000000Z</property>
  <property name="meta.attr.encoder.markup">x264</property>
  <property name="seekable">1</property>
  <property name="meta.media.sample_aspect_num">1</property>
  <property name="meta.media.sample_aspect_den">1</property>
  <property name="aspect_ratio">1</property>
  <property name="kdenlive:clipname"/>
  <property name="kdenlive:folderid">14</property>
  <property name="meta.media.frame_rate_num">24</property>
  <property name="meta.media.frame_rate_den">1</property>
  <property name="meta.media.colorspace">709</property>
  <property name="meta.media.color_trc">1</property>
  <property name="meta.media.has_b_frames">0</property>
  <property name="meta.media.width">1628</property>
  <property name="meta.media.height">1032</property>
  <property name="meta.media.color_range">mpeg</property>
  <property name="kdenlive:id">7</property>
  <property name="kdenlive:file_size">426804</property>
  <property name="kdenlive:file_hash">775abf500453e0a4c3856d675e00e465</property>
  <property name="meta.media.top_field_first">0</property>
  <property name="meta.media.progressive">1</property>
 </producer>
 <producer id="producer6" in="00:00:00.000" out="00:00:09.000">
  <property name="length">226</property>
  <property name="eof">pause</property>
  <property name="resource">AI_story/2_add_variable_code.mp4</property>
  <property name="audio_index">-1</property>
  <property name="video_index">0</property>
  <property name="mute_on_pause">0</property>
  <property name="mlt_service">avformat-novalidate</property>
  <property name="meta.media.nb_streams">1</property>
  <property name="meta.media.0.stream.type">video</property>
  <property name="meta.media.0.stream.frame_rate">24</property>
  <property name="meta.media.0.stream.sample_aspect_ratio">1</property>
  <property name="meta.media.0.codec.width">1278</property>
  <property name="meta.media.0.codec.height">998</property>
  <property name="meta.media.0.codec.rotate">0</property>
  <property name="meta.media.0.codec.pix_fmt">yuv444p</property>
  <property name="meta.media.0.codec.sample_aspect_ratio">1</property>
  <property name="meta.media.0.codec.colorspace">709</property>
  <property name="meta.media.0.codec.color_trc">1</property>
  <property name="meta.media.0.codec.name">h264</property>
  <property name="meta.media.0.codec.long_name">H.264 / AVC / MPEG-4 AVC / MPEG-4 part 10</property>
  <property name="meta.media.0.codec.bit_rate">370518</property>
  <property name="meta.attr.0.stream.creation_time.markup">2023-03-07T04:06:14.000000Z</property>
  <property name="meta.attr.0.stream.handler_name.markup">VideoHandler</property>
  <property name="meta.attr.0.stream.vendor_id.markup">[0][0][0][0]</property>
  <property name="meta.attr.major_brand.markup">mp42</property>
  <property name="meta.attr.minor_version.markup">0</property>
  <property name="meta.attr.compatible_brands.markup">mp42mp41isomiso2</property>
  <property name="meta.attr.creation_time.markup">2023-03-07T04:06:14.000000Z</property>
  <property name="meta.attr.encoder.markup">x264</property>
  <property name="seekable">1</property>
  <property name="meta.media.sample_aspect_num">1</property>
  <property name="meta.media.sample_aspect_den">1</property>
  <property name="aspect_ratio">1</property>
  <property name="kdenlive:clipname"/>
  <property name="kdenlive:folderid">15</property>
  <property name="meta.media.frame_rate_num">24</property>
  <property name="meta.media.frame_rate_den">1</property>
  <property name="meta.media.colorspace">709</property>
  <property name="meta.media.color_trc">1</property>
  <property name="meta.media.has_b_frames">0</property>
  <property name="meta.media.width">1278</property>
  <property name="meta.media.height">998</property>
  <property name="meta.media.color_range">mpeg</property>
  <property name="kdenlive:id">8</property>
  <property name="kdenlive:file_size">420553</property>
  <property name="kdenlive:file_hash">d1bc434dfa967e958ab73efb0fda7d91</property>
  <property name="meta.media.top_field_first">0</property>
  <property name="meta.media.progressive">1</property>
 </producer>
 <producer id="producer7" in="00:00:00.000" out="00:00:04.960">
  <property name="length">125</property>
  <property name="eof">pause</property>
  <property name="resource"/>
  <property name="progressive">1</property>
  <property name="aspect_ratio">1</property>
  <property name="seekable">1</property>
  <property name="mlt_service">kdenlivetitle</property>
  <property name="kdenlive:duration">125</property>
  <property name="kdenlive:clipname">title: add variable</property>
  <property name="xmldata">&lt;kdenlivetitle duration="125" LC_NUMERIC="C" width="2560" height="1600" out="124">
 &lt;item type="QGraphicsTextItem" z-index="0">
  &lt;position x="378" y="492">
   &lt;transform>1,0,0,0,1,0,0,0,1&lt;/transform>
  &lt;/position>
  &lt;content line-spacing="0" shadow="0;#64000000;3;3;3" font-underline="0" box-height="616" font="FreeSans" letter-spacing="0" font-pixel-size="140" font-italic="0" typewriter="0;2;1;0;0" alignment="4" font-weight="50" box-width="1493.22" font-color="0,0,0,255">The word became flesh?

An argument/return 
became a widget!&lt;/content>
 &lt;/item>
 &lt;startviewport rect="0,0,2560,1600"/>
 &lt;endviewport rect="0,0,2560,1600"/>
 &lt;background color="0,0,0,0"/>
&lt;/kdenlivetitle>
</property>
  <property name="kdenlive:folderid">15</property>
  <property name="kdenlive:id">9</property>
  <property name="kdenlive:file_hash">3a3fbdb836f14cc83d6310327a6b9c65</property>
  <property name="force_reload">0</property>
  <property name="meta.media.width">2560</property>
  <property name="meta.media.height">1600</property>
 </producer>
 <producer id="producer8" in="00:00:00.000" out="00:00:12.880">
  <property name="length">323</property>
  <property name="eof">pause</property>
  <property name="resource">AI_story/2_add_variable_web.mp4</property>
  <property name="audio_index">-1</property>
  <property name="video_index">0</property>
  <property name="mute_on_pause">0</property>
  <property name="mlt_service">avformat-novalidate</property>
  <property name="meta.media.nb_streams">1</property>
  <property name="meta.media.0.stream.type">video</property>
  <property name="meta.media.0.stream.frame_rate">24</property>
  <property name="meta.media.0.stream.sample_aspect_ratio">1</property>
  <property name="meta.media.0.codec.width">1630</property>
  <property name="meta.media.0.codec.height">1004</property>
  <property name="meta.media.0.codec.rotate">0</property>
  <property name="meta.media.0.codec.pix_fmt">yuv444p</property>
  <property name="meta.media.0.codec.sample_aspect_ratio">1</property>
  <property name="meta.media.0.codec.colorspace">709</property>
  <property name="meta.media.0.codec.color_trc">1</property>
  <property name="meta.media.0.codec.name">h264</property>
  <property name="meta.media.0.codec.long_name">H.264 / AVC / MPEG-4 AVC / MPEG-4 part 10</property>
  <property name="meta.media.0.codec.bit_rate">230201</property>
  <property name="meta.attr.0.stream.creation_time.markup">2023-03-07T04:09:17.000000Z</property>
  <property name="meta.attr.0.stream.handler_name.markup">VideoHandler</property>
  <property name="meta.attr.0.stream.vendor_id.markup">[0][0][0][0]</property>
  <property name="meta.attr.major_brand.markup">mp42</property>
  <property name="meta.attr.minor_version.markup">0</property>
  <property name="meta.attr.compatible_brands.markup">mp42mp41isomiso2</property>
  <property name="meta.attr.creation_time.markup">2023-03-07T04:09:17.000000Z</property>
  <property name="meta.attr.encoder.markup">x264</property>
  <property name="seekable">1</property>
  <property name="meta.media.sample_aspect_num">1</property>
  <property name="meta.media.sample_aspect_den">1</property>
  <property name="aspect_ratio">1</property>
  <property name="kdenlive:clipname"/>
  <property name="kdenlive:folderid">15</property>
  <property name="meta.media.frame_rate_num">24</property>
  <property name="meta.media.frame_rate_den">1</property>
  <property name="meta.media.colorspace">709</property>
  <property name="meta.media.color_trc">1</property>
  <property name="meta.media.has_b_frames">0</property>
  <property name="meta.media.width">1630</property>
  <property name="meta.media.height">1004</property>
  <property name="meta.media.color_range">mpeg</property>
  <property name="kdenlive:id">10</property>
  <property name="kdenlive:file_size">373844</property>
  <property name="kdenlive:file_hash">61aed1d6253667675119b49f80d9a08e</property>
  <property name="meta.media.top_field_first">0</property>
  <property name="meta.media.progressive">1</property>
 </producer>
 <producer id="producer10" in="00:00:00.000" out="00:00:04.960">
  <property name="length">00:00:05.000</property>
  <property name="eof">pause</property>
  <property name="resource">AI_story/2_add_variable_code.png</property>
  <property name="ttl">25</property>
  <property name="aspect_ratio">1</property>
  <property name="progressive">1</property>
  <property name="seekable">1</property>
  <property name="meta.media.width">2560</property>
  <property name="meta.media.height">1600</property>
  <property name="mlt_service">qimage</property>
  <property name="kdenlive:clipname"/>
  <property name="kdenlive:duration">00:00:05.000</property>
  <property name="kdenlive:proxy">-</property>
  <property name="kdenlive:originalurl">AI_story/2_add_variable_code.png</property>
  <property name="kdenlive:id">11</property>
  <property name="kdenlive:file_size">768873</property>
  <property name="kdenlive:file_hash">29d5a2e8450db77f33f9e19cf9445b93</property>
  <property name="kdenlive:folderid">15</property>
 </producer>
 <producer id="producer11" in="00:00:00.000" out="00:00:05.720">
  <property name="length">144</property>
  <property name="eof">pause</property>
  <property name="resource">AI_story/3_theme_code.mp4</property>
  <property name="audio_index">-1</property>
  <property name="video_index">0</property>
  <property name="mute_on_pause">0</property>
  <property name="mlt_service">avformat-novalidate</property>
  <property name="meta.media.nb_streams">1</property>
  <property name="meta.media.0.stream.type">video</property>
  <property name="meta.media.0.stream.frame_rate">24</property>
  <property name="meta.media.0.stream.sample_aspect_ratio">1</property>
  <property name="meta.media.0.codec.width">1280</property>
  <property name="meta.media.0.codec.height">1004</property>
  <property name="meta.media.0.codec.rotate">0</property>
  <property name="meta.media.0.codec.pix_fmt">yuv444p</property>
  <property name="meta.media.0.codec.sample_aspect_ratio">1</property>
  <property name="meta.media.0.codec.colorspace">709</property>
  <property name="meta.media.0.codec.color_trc">1</property>
  <property name="meta.media.0.codec.name">h264</property>
  <property name="meta.media.0.codec.long_name">H.264 / AVC / MPEG-4 AVC / MPEG-4 part 10</property>
  <property name="meta.media.0.codec.bit_rate">579710</property>
  <property name="meta.attr.0.stream.creation_time.markup">2023-03-07T04:12:12.000000Z</property>
  <property name="meta.attr.0.stream.handler_name.markup">VideoHandler</property>
  <property name="meta.attr.0.stream.vendor_id.markup">[0][0][0][0]</property>
  <property name="meta.attr.major_brand.markup">mp42</property>
  <property name="meta.attr.minor_version.markup">0</property>
  <property name="meta.attr.compatible_brands.markup">mp42mp41isomiso2</property>
  <property name="meta.attr.creation_time.markup">2023-03-07T04:12:12.000000Z</property>
  <property name="meta.attr.encoder.markup">x264</property>
  <property name="seekable">1</property>
  <property name="meta.media.sample_aspect_num">1</property>
  <property name="meta.media.sample_aspect_den">1</property>
  <property name="aspect_ratio">1</property>
  <property name="kdenlive:clipname"/>
  <property name="kdenlive:folderid">19</property>
  <property name="meta.media.frame_rate_num">24</property>
  <property name="meta.media.frame_rate_den">1</property>
  <property name="meta.media.colorspace">709</property>
  <property name="meta.media.color_trc">1</property>
  <property name="meta.media.has_b_frames">0</property>
  <property name="meta.media.width">1280</property>
  <property name="meta.media.height">1004</property>
  <property name="meta.media.color_range">mpeg</property>
  <property name="kdenlive:id">12</property>
  <property name="kdenlive:file_size">418140</property>
  <property name="kdenlive:file_hash">0e38381d3b4737b280c1178cd4cb2a47</property>
  <property name="meta.media.top_field_first">0</property>
  <property name="meta.media.progressive">1</property>
 </producer>
 <producer id="producer12" in="00:00:00.000" out="00:00:04.960">
  <property name="length">00:00:05.000</property>
  <property name="eof">pause</property>
  <property name="resource">AI_story/3_theme_code.png</property>
  <property name="ttl">25</property>
  <property name="aspect_ratio">1</property>
  <property name="progressive">1</property>
  <property name="seekable">1</property>
  <property name="meta.media.width">2560</property>
  <property name="meta.media.height">1600</property>
  <property name="mlt_service">qimage</property>
  <property name="kdenlive:clipname"/>
  <property name="kdenlive:duration">00:00:05.000</property>
  <property name="kdenlive:folderid">19</property>
  <property name="kdenlive:id">13</property>
  <property name="kdenlive:file_size">924044</property>
  <property name="kdenlive:file_hash">67d9c39c46fc50f2b90f63f462447ad3</property>
 </producer>
 <producer id="producer13" in="00:00:00.000" out="00:00:04.360">
  <property name="length">110</property>
  <property name="eof">pause</property>
  <property name="resource">AI_story/3_theme_web.mp4</property>
  <property name="audio_index">-1</property>
  <property name="video_index">0</property>
  <property name="mute_on_pause">0</property>
  <property name="mlt_service">avformat-novalidate</property>
  <property name="meta.media.nb_streams">1</property>
  <property name="meta.media.0.stream.type">video</property>
  <property name="meta.media.0.stream.frame_rate">24</property>
  <property name="meta.media.0.stream.sample_aspect_ratio">1</property>
  <property name="meta.media.0.codec.width">1632</property>
  <property name="meta.media.0.codec.height">1018</property>
  <property name="meta.media.0.codec.rotate">0</property>
  <property name="meta.media.0.codec.pix_fmt">yuv444p</property>
  <property name="meta.media.0.codec.sample_aspect_ratio">1</property>
  <property name="meta.media.0.codec.colorspace">709</property>
  <property name="meta.media.0.codec.color_trc">1</property>
  <property name="meta.media.0.codec.name">h264</property>
  <property name="meta.media.0.codec.long_name">H.264 / AVC / MPEG-4 AVC / MPEG-4 part 10</property>
  <property name="meta.media.0.codec.bit_rate">378921</property>
  <property name="meta.attr.0.stream.creation_time.markup">2023-03-07T04:14:30.000000Z</property>
  <property name="meta.attr.0.stream.handler_name.markup">VideoHandler</property>
  <property name="meta.attr.0.stream.vendor_id.markup">[0][0][0][0]</property>
  <property name="meta.attr.major_brand.markup">mp42</property>
  <property name="meta.attr.minor_version.markup">0</property>
  <property name="meta.attr.compatible_brands.markup">mp42mp41isomiso2</property>
  <property name="meta.attr.creation_time.markup">2023-03-07T04:14:30.000000Z</property>
  <property name="meta.attr.encoder.markup">x264</property>
  <property name="seekable">1</property>
  <property name="meta.media.sample_aspect_num">1</property>
  <property name="meta.media.sample_aspect_den">1</property>
  <property name="aspect_ratio">1</property>
  <property name="kdenlive:clipname"/>
  <property name="kdenlive:folderid">19</property>
  <property name="meta.media.frame_rate_num">24</property>
  <property name="meta.media.frame_rate_den">1</property>
  <property name="meta.media.colorspace">709</property>
  <property name="meta.media.color_trc">1</property>
  <property name="meta.media.has_b_frames">0</property>
  <property name="meta.media.width">1632</property>
  <property name="meta.media.height">1018</property>
  <property name="meta.media.color_range">mpeg</property>
  <property name="kdenlive:id">16</property>
  <property name="kdenlive:file_size">210541</property>
  <property name="kdenlive:file_hash">c962d57b929706aba7e19f207c9d4886</property>
  <property name="meta.media.top_field_first">0</property>
  <property name="meta.media.progressive">1</property>
 </producer>
 <producer id="producer14" in="00:00:00.000" out="00:00:05.760">
  <property name="length">145</property>
  <property name="eof">pause</property>
  <property name="resource"/>
  <property name="progressive">1</property>
  <property name="aspect_ratio">1</property>
  <property name="seekable">1</property>
  <property name="mlt_service">kdenlivetitle</property>
  <property name="kdenlive:duration">125</property>
  <property name="kdenlive:clipname">title: theme</property>
  <property name="xmldata">&lt;kdenlivetitle duration="125" LC_NUMERIC="C" width="2560" height="1600" out="124">
 &lt;item type="QGraphicsTextItem" z-index="0">
  &lt;position x="232" y="415">
   &lt;transform>1,0,0,0,1,0,0,0,1&lt;/transform>
  &lt;/position>
  &lt;content line-spacing="0" shadow="0;#64000000;3;3;3" font-underline="0" box-height="770" font="FreeSans" letter-spacing="0" font-pixel-size="140" font-italic="0" typewriter="0;2;1;0;0" alignment="4" font-weight="50" box-width="2095.25" font-color="0,0,0,255">Themes: 
consistent per-type widget choices
and styles across apps.

Just like LaTeX classes. &lt;/content>
 &lt;/item>
 &lt;startviewport rect="0,0,2560,1600"/>
 &lt;endviewport rect="0,0,2560,1600"/>
 &lt;background color="0,0,0,0"/>
&lt;/kdenlivetitle>
</property>
  <property name="kdenlive:folderid">19</property>
  <property name="kdenlive:id">17</property>
  <property name="kdenlive:file_hash">1e81c20ba5ccb797f45dbed2cb3d2053</property>
  <property name="force_reload">0</property>
  <property name="meta.media.width">2560</property>
  <property name="meta.media.height">1600</property>
 </producer>
 <producer id="producer9" in="00:00:00.000" out="00:00:04.960">
  <property name="length">00:00:05.000</property>
  <property name="eof">pause</property>
  <property name="resource">AI_story/2_add_variable_web.png</property>
  <property name="ttl">25</property>
  <property name="aspect_ratio">1</property>
  <property name="progressive">1</property>
  <property name="seekable">1</property>
  <property name="meta.media.width">1636</property>
  <property name="meta.media.height">1003</property>
  <property name="mlt_service">qimage</property>
  <property name="kdenlive:clipname"/>
  <property name="kdenlive:duration">00:00:05.000</property>
  <property name="kdenlive:folderid">15</property>
  <property name="kdenlive:id">18</property>
  <property name="kdenlive:file_size">75246</property>
  <property name="kdenlive:file_hash">7133c5a2d251893b788b19615e245f61</property>
 </producer>
 <producer id="producer19" in="00:00:00.000" out="00:00:05.080">
  <property name="length">128</property>
  <property name="eof">pause</property>
  <property name="resource">AI_story/4_local_customization.png</property>
  <property name="ttl">25</property>
  <property name="aspect_ratio">1</property>
  <property name="progressive">1</property>
  <property name="seekable">1</property>
  <property name="meta.media.width">1628</property>
  <property name="meta.media.height">1006</property>
  <property name="mlt_service">qimage</property>
  <property name="kdenlive:clipname"/>
  <property name="kdenlive:duration">00:00:05.000</property>
  <property name="kdenlive:proxy">-</property>
  <property name="kdenlive:originalurl">AI_story/4_local_customization.png</property>
  <property name="kdenlive:id">20</property>
  <property name="kdenlive:file_size">146768</property>
  <property name="kdenlive:file_hash">5a72f1ef030aad7fdd7666e84f874aed</property>
  <property name="kdenlive:folderid">29</property>
 </producer>
 <producer id="producer18" in="00:00:00.000" out="00:00:20.240">
  <property name="length">507</property>
  <property name="eof">pause</property>
  <property name="resource">AI_story/4_local_customization_code.mp4</property>
  <property name="audio_index">-1</property>
  <property name="video_index">0</property>
  <property name="mute_on_pause">0</property>
  <property name="mlt_service">avformat-novalidate</property>
  <property name="seekable">1</property>
  <property name="aspect_ratio">1</property>
  <property name="kdenlive:clipname"/>
  <property name="kdenlive:folderid">29</property>
  <property name="kdenlive:id">21</property>
  <property name="kdenlive:file_size">1675325</property>
  <property name="kdenlive:file_hash">8f17398dc2183a550ff57dc1648c53dc</property>
  <property name="meta.media.nb_streams">1</property>
  <property name="meta.media.0.stream.type">video</property>
  <property name="meta.media.0.stream.frame_rate">24</property>
  <property name="meta.media.0.stream.sample_aspect_ratio">1</property>
  <property name="meta.media.0.codec.width">1308</property>
  <property name="meta.media.0.codec.height">1330</property>
  <property name="meta.media.0.codec.rotate">0</property>
  <property name="meta.media.0.codec.pix_fmt">yuv444p</property>
  <property name="meta.media.0.codec.sample_aspect_ratio">1</property>
  <property name="meta.media.0.codec.colorspace">709</property>
  <property name="meta.media.0.codec.color_trc">1</property>
  <property name="meta.media.0.codec.name">h264</property>
  <property name="meta.media.0.codec.long_name">H.264 / AVC / MPEG-4 AVC / MPEG-4 part 10</property>
  <property name="meta.media.0.codec.bit_rate">659363</property>
  <property name="meta.attr.0.stream.creation_time.markup">2023-03-07T04:44:47.000000Z</property>
  <property name="meta.attr.0.stream.handler_name.markup">VideoHandler</property>
  <property name="meta.attr.0.stream.vendor_id.markup">[0][0][0][0]</property>
  <property name="meta.attr.major_brand.markup">mp42</property>
  <property name="meta.attr.minor_version.markup">0</property>
  <property name="meta.attr.compatible_brands.markup">mp42mp41isomiso2</property>
  <property name="meta.attr.creation_time.markup">2023-03-07T04:44:47.000000Z</property>
  <property name="meta.attr.encoder.markup">x264</property>
  <property name="meta.media.sample_aspect_num">1</property>
  <property name="meta.media.sample_aspect_den">1</property>
  <property name="meta.media.frame_rate_num">24</property>
  <property name="meta.media.frame_rate_den">1</property>
  <property name="meta.media.colorspace">709</property>
  <property name="meta.media.color_trc">1</property>
  <property name="meta.media.has_b_frames">0</property>
  <property name="meta.media.width">1308</property>
  <property name="meta.media.height">1330</property>
  <property name="meta.media.color_range">mpeg</property>
  <property name="meta.media.top_field_first">0</property>
  <property name="meta.media.progressive">1</property>
 </producer>
 <producer id="producer15" in="00:00:00.000" out="00:00:04.960">
  <property name="length">125</property>
  <property name="eof">pause</property>
  <property name="resource"/>
  <property name="progressive">1</property>
  <property name="aspect_ratio">1</property>
  <property name="seekable">1</property>
  <property name="mlt_service">kdenlivetitle</property>
  <property name="kdenlive:duration">125</property>
  <property name="kdenlive:clipname">default them...</property>
  <property name="xmldata">&lt;kdenlivetitle duration="125" LC_NUMERIC="C" width="2560" height="1600" out="124">
 &lt;item type="QGraphicsTextItem" z-index="0">
  &lt;position x="868" y="1122">
   &lt;transform>1,0,0,0,1,0,0,0,1&lt;/transform>
  &lt;/position>
  &lt;content line-spacing="0" shadow="0;#64000000;3;3;3" font-underline="0" box-height="154" font-outline-color="0,0,0,255" font="FreeSans" letter-spacing="0" font-pixel-size="140" font-italic="0" typewriter="0;2;1;0;0" alignment="2" font-weight="50" font-outline="0" box-width="824.484" font-color="0,85,255,255">default theme&lt;/content>
 &lt;/item>
 &lt;startviewport rect="0,0,2560,1600"/>
 &lt;endviewport rect="0,0,2560,1600"/>
 &lt;background color="0,0,0,0"/>
&lt;/kdenlivetitle>
</property>
  <property name="kdenlive:folderid">19</property>
  <property name="kdenlive:id">22</property>
  <property name="kdenlive:file_hash">87572f74f3a0f030e127519b380d58d0</property>
  <property name="force_reload">0</property>
  <property name="meta.media.width">2560</property>
  <property name="meta.media.height">1600</property>
 </producer>
 <producer id="producer16" in="00:00:00.000" out="00:00:04.960">
  <property name="length">125</property>
  <property name="eof">pause</property>
  <property name="resource"/>
  <property name="progressive">1</property>
  <property name="aspect_ratio">1</property>
  <property name="seekable">1</property>
  <property name="mlt_service">kdenlivetitle</property>
  <property name="kdenlive:duration">125</property>
  <property name="kdenlive:clipname">Sunset theme</property>
  <property name="xmldata">&lt;kdenlivetitle duration="125" LC_NUMERIC="C" width="2560" height="1600" out="124">
 &lt;item type="QGraphicsTextItem" z-index="0">
  &lt;position x="861" y="1190">
   &lt;transform>1,0,0,0,1,0,0,0,1&lt;/transform>
  &lt;/position>
  &lt;content shadow="0;#64000000;3;3;3" font-underline="0" box-height="154" font-outline-color="0,0,0,255" font="FreeSans" letter-spacing="0" font-pixel-size="140" font-italic="0" typewriter="0;2;1;0;0" alignment="2" font-weight="50" font-outline="0" box-width="838.641" font-color="0,85,255,255">Sunset theme&lt;/content>
 &lt;/item>
 &lt;startviewport rect="0,0,2560,1600"/>
 &lt;endviewport rect="0,0,2560,1600"/>
 &lt;background color="0,0,0,0"/>
&lt;/kdenlivetitle>
</property>
  <property name="kdenlive:folderid">19</property>
  <property name="kdenlive:id">23</property>
  <property name="kdenlive:file_hash">8892e5db5598938a5d856c9d56b686c6</property>
  <property name="force_reload">0</property>
  <property name="meta.media.width">2560</property>
  <property name="meta.media.height">1600</property>
 </producer>
 <producer id="producer17" in="00:00:00.000" out="00:00:04.960">
  <property name="length">125</property>
  <property name="eof">pause</property>
  <property name="resource"/>
  <property name="progressive">1</property>
  <property name="aspect_ratio">1</property>
  <property name="seekable">1</property>
  <property name="mlt_service">kdenlivetitle</property>
  <property name="kdenlive:duration">125</property>
  <property name="kdenlive:clipname">4_title</property>
  <property name="xmldata">&lt;kdenlivetitle duration="125" LC_NUMERIC="C" width="2560" height="1600" out="124">
 &lt;item type="QGraphicsTextItem" z-index="0">
  &lt;position x="325" y="723">
   &lt;transform>1,0,0,0,1,0,0,0,1&lt;/transform>
  &lt;/position>
  &lt;content line-spacing="0" shadow="0;#64000000;3;3;3" font-underline="0" box-height="154" font="FreeSans" letter-spacing="0" font-pixel-size="140" font-italic="0" typewriter="0;2;1;0;0" alignment="4" font-weight="50" box-width="1910.36" font-color="0,0,0,255">Declarative local customization.&lt;/content>
 &lt;/item>
 &lt;startviewport rect="0,0,2560,1600"/>
 &lt;endviewport rect="0,0,2560,1600"/>
 &lt;background color="0,0,0,0"/>
&lt;/kdenlivetitle>
</property>
  <property name="kdenlive:folderid">29</property>
  <property name="kdenlive:id">24</property>
  <property name="kdenlive:file_hash">b61cd0b7ac39b86899194d0e2b0be1ea</property>
  <property name="force_reload">0</property>
  <property name="meta.media.width">2560</property>
  <property name="meta.media.height">1600</property>
 </producer>
 <producer id="producer20" in="00:00:00.000" out="00:00:04.960">
  <property name="length">00:00:05.000</property>
  <property name="eof">pause</property>
  <property name="resource">AI_story/4_local_customization_code.png</property>
  <property name="ttl">25</property>
  <property name="aspect_ratio">1</property>
  <property name="progressive">1</property>
  <property name="seekable">1</property>
  <property name="meta.media.width">1294</property>
  <property name="meta.media.height">1380</property>
  <property name="mlt_service">qimage</property>
  <property name="kdenlive:clipname"/>
  <property name="kdenlive:duration">00:00:05.000</property>
  <property name="kdenlive:folderid">29</property>
  <property name="kdenlive:id">25</property>
  <property name="kdenlive:file_size">255173</property>
  <property name="kdenlive:file_hash">a9355f26471fee21bec6ce20e073c3ca</property>
 </producer>
 <producer id="producer21" in="00:00:00.000" out="00:00:04.960">
  <property name="length">00:00:05.000</property>
  <property name="eof">pause</property>
  <property name="resource">AI_story/3_theme_web.png</property>
  <property name="ttl">25</property>
  <property name="aspect_ratio">1</property>
  <property name="progressive">1</property>
  <property name="seekable">1</property>
  <property name="meta.media.width">1636</property>
  <property name="meta.media.height">1003</property>
  <property name="mlt_service">qimage</property>
  <property name="kdenlive:clipname"/>
  <property name="kdenlive:duration">00:00:05.000</property>
  <property name="kdenlive:folderid">19</property>
  <property name="kdenlive:id">26</property>
  <property name="kdenlive:file_size">82274</property>
  <property name="kdenlive:file_hash">63963ed30f892cf659adad971a583521</property>
 </producer>
 <producer id="producer22" in="00:00:00.000" out="00:00:04.960">
  <property name="length">125</property>
  <property name="eof">pause</property>
  <property name="resource"/>
  <property name="progressive">1</property>
  <property name="aspect_ratio">1</property>
  <property name="seekable">1</property>
  <property name="mlt_service">kdenlivetitle</property>
  <property name="kdenlive:duration">125</property>
  <property name="kdenlive:clipname">Comment:Before</property>
  <property name="xmldata">&lt;kdenlivetitle duration="125" LC_NUMERIC="C" width="2560" height="1600" out="124">
 &lt;item type="QGraphicsTextItem" z-index="1">
  &lt;position x="401" y="1249">
   &lt;transform>1,0,0,0,1,0,0,0,1&lt;/transform>
  &lt;/position>
  &lt;content line-spacing="0" shadow="0;#64000000;3;3;3" font-underline="0" box-height="110" font-outline-color="0,0,0,255" font="FreeSans" letter-spacing="0" font-pixel-size="100" font-italic="0" typewriter="0;2;1;0;0" alignment="2" font-weight="50" font-outline="0" box-width="1758.17" font-color="0,85,255,255">Using only default settings per the theme&lt;/content>
 &lt;/item>
 &lt;item type="QGraphicsTextItem" z-index="0">
  &lt;position x="1079" y="1045">
   &lt;transform>1,0,0,0,1,0,0,0,1&lt;/transform>
  &lt;/position>
  &lt;content line-spacing="0" shadow="0;#64000000;3;3;3" font-underline="0" box-height="154" font="FreeSans" letter-spacing="0" font-pixel-size="140" font-italic="0" typewriter="0;2;1;0;0" alignment="4" font-weight="50" box-width="402.578" font-color="0,85,255,255">Before&lt;/content>
 &lt;/item>
 &lt;startviewport rect="0,0,2560,1600"/>
 &lt;endviewport rect="0,0,2560,1600"/>
 &lt;background color="0,0,0,0"/>
&lt;/kdenlivetitle>
</property>
  <property name="kdenlive:folderid">29</property>
  <property name="kdenlive:id">27</property>
  <property name="kdenlive:file_hash">40e27aa419aefdf0c643433e87449bb1</property>
  <property name="force_reload">0</property>
  <property name="meta.media.width">2560</property>
  <property name="meta.media.height">1600</property>
 </producer>
 <producer id="producer23" in="00:00:00.000" out="00:00:04.960">
  <property name="length">125</property>
  <property name="eof">pause</property>
  <property name="resource"/>
  <property name="progressive">1</property>
  <property name="aspect_ratio">1</property>
  <property name="seekable">1</property>
  <property name="mlt_service">kdenlivetitle</property>
  <property name="kdenlive:duration">125</property>
  <property name="kdenlive:clipname">Comment:After</property>
  <property name="xmldata">&lt;kdenlivetitle duration="125" LC_NUMERIC="C" width="2560" height="1600" out="124">
 &lt;item type="QGraphicsTextItem" z-index="1">
  &lt;position x="731" y="1309">
   &lt;transform>1,0,0,0,1,0,0,0,1&lt;/transform>
  &lt;/position>
  &lt;content line-spacing="0" shadow="0;#64000000;3;3;3" font-underline="0" box-height="110" font-outline-color="0,0,0,255" font="FreeSans" letter-spacing="0" font-pixel-size="100" font-italic="0" typewriter="0;2;1;0;0" alignment="2" font-weight="50" font-outline="0" box-width="1097.13" font-color="0,85,255,255">(title, label, radio buttons)&lt;/content>
 &lt;/item>
 &lt;item type="QGraphicsTextItem" z-index="0">
  &lt;position x="1116" y="1131">
   &lt;transform>1,0,0,0,1,0,0,0,1&lt;/transform>
  &lt;/position>
  &lt;content line-spacing="0" shadow="0;#64000000;3;3;3" font-underline="0" box-height="154" font-outline-color="0,0,0,255" font="FreeSans" letter-spacing="0" font-pixel-size="140" font-italic="0" typewriter="0;2;1;0;0" alignment="4" font-weight="50" font-outline="0" box-width="327.688" font-color="0,85,255,255">After &lt;/content>
 &lt;/item>
 &lt;startviewport rect="0,0,2560,1600"/>
 &lt;endviewport rect="0,0,2560,1600"/>
 &lt;background color="0,0,0,0"/>
&lt;/kdenlivetitle>
</property>
  <property name="kdenlive:folderid">29</property>
  <property name="kdenlive:id">28</property>
  <property name="kdenlive:file_hash">40e27aa419aefdf0c643433e87449bb1</property>
  <property name="force_reload">0</property>
  <property name="meta.media.width">2560</property>
  <property name="meta.media.height">1600</property>
 </producer>
 <playlist id="main_bin">
  <property name="kdenlive:folder.-1.14">1_AI_Code</property>
  <property name="kdenlive:folder.-1.15">2_new_variable</property>
  <property name="kdenlive:folder.-1.19">3_theme</property>
  <property name="kdenlive:folder.-1.29">4_local_customization</property>
  <property name="kdenlive:docproperties.activeTrack">4</property>
  <property name="kdenlive:docproperties.audioChannels">2</property>
  <property name="kdenlive:docproperties.audioTarget">-1</property>
  <property name="kdenlive:docproperties.disablepreview">0</property>
  <property name="kdenlive:docproperties.documentid">1678129262934</property>
  <property name="kdenlive:docproperties.enableTimelineZone">0</property>
  <property name="kdenlive:docproperties.enableexternalproxy">0</property>
  <property name="kdenlive:docproperties.enableproxy">0</property>
  <property name="kdenlive:docproperties.externalproxyparams"/>
  <property name="kdenlive:docproperties.generateimageproxy">0</property>
  <property name="kdenlive:docproperties.generateproxy">0</property>
  <property name="kdenlive:docproperties.groups">[
    {
        "children": [
            {
                "data": "3:1816",
                "leaf": "clip",
                "type": "Leaf"
            },
            {
                "data": "2:1816",
                "leaf": "clip",
                "type": "Leaf"
            },
            {
                "data": "3:2361",
                "leaf": "clip",
                "type": "Leaf"
            },
            {
                "data": "4:1867",
                "leaf": "clip",
                "type": "Leaf"
            },
            {
                "data": "4:2294",
                "leaf": "clip",
                "type": "Leaf"
            },
            {
                "data": "3:2294",
                "leaf": "clip",
                "type": "Leaf"
            },
            {
                "data": "2:2294",
                "leaf": "clip",
                "type": "Leaf"
            },
            {
                "data": "2:2361",
                "leaf": "clip",
                "type": "Leaf"
            }
        ],
        "type": "Normal"
    },
    {
        "children": [
            {
                "data": "2:970",
                "leaf": "clip",
                "type": "Leaf"
            },
            {
                "data": "3:970",
                "leaf": "clip",
                "type": "Leaf"
            },
            {
                "data": "4:1067",
                "leaf": "clip",
                "type": "Leaf"
            },
            {
                "data": "3:1229",
                "leaf": "clip",
                "type": "Leaf"
            },
            {
                "data": "2:1229",
                "leaf": "clip",
                "type": "Leaf"
            },
            {
                "data": "2:1304",
                "leaf": "clip",
                "type": "Leaf"
            },
            {
                "data": "2:1313",
                "leaf": "clip",
                "type": "Leaf"
            }
        ],
        "type": "Normal"
    },
    {
        "children": [
            {
                "data": "3:1484",
                "leaf": "clip",
                "type": "Leaf"
            },
            {
                "data": "2:1484",
                "leaf": "clip",
                "type": "Leaf"
            },
            {
                "children": [
                    {
                        "data": "4:1697",
                        "leaf": "clip",
                        "type": "Leaf"
                    },
                    {
                        "children": [
                            {
                                "data": "2:1720",
                                "leaf": "clip",
                                "type": "Leaf"
                            },
                            {
                                "data": "2:1697",
                                "leaf": "clip",
                                "type": "Leaf"
                            },
                            {
                                "data": "3:1697",
                                "leaf": "clip",
                                "type": "Leaf"
                            },
                            {
                                "data": "4:1733",
                                "leaf": "clip",
                                "type": "Leaf"
                            },
                            {
                                "data": "4:1607",
                                "leaf": "clip",
                                "type": "Leaf"
                            }
                        ],
                        "type": "Normal"
                    }
                ],
                "type": "Normal"
            }
        ],
        "type": "Normal"
    },
    {
        "children": [
            {
                "data": "3:753",
                "leaf": "clip",
                "type": "Leaf"
            },
            {
                "data": "2:914",
                "leaf": "clip",
                "type": "Leaf"
            },
            {
                "data": "2:663",
                "leaf": "clip",
                "type": "Leaf"
            },
            {
                "data": "2:753",
                "leaf": "clip",
                "type": "Leaf"
            }
        ],
        "type": "Normal"
    }
]
</property>
  <property name="kdenlive:docproperties.kdenliveversion">21.12.3</property>
  <property name="kdenlive:docproperties.position">66</property>
  <property name="kdenlive:docproperties.previewextension"/>
  <property name="kdenlive:docproperties.previewparameters"/>
  <property name="kdenlive:docproperties.profile">/home/forrest/.local/share/kdenlive/profiles/customprofile0</property>
  <property name="kdenlive:docproperties.proxyextension"/>
  <property name="kdenlive:docproperties.proxyimageminsize">2000</property>
  <property name="kdenlive:docproperties.proxyimagesize">800</property>
  <property name="kdenlive:docproperties.proxyminsize">1000</property>
  <property name="kdenlive:docproperties.proxyparams"/>
  <property name="kdenlive:docproperties.proxyresize">640</property>
  <property name="kdenlive:docproperties.renderaudioquality">192</property>
  <property name="kdenlive:docproperties.rendercategory">Generic (HD for web, mobile devices...)</property>
  <property name="kdenlive:docproperties.renderendguide">-1</property>
  <property name="kdenlive:docproperties.renderexportaudio">0</property>
  <property name="kdenlive:docproperties.renderfield">0</property>
  <property name="kdenlive:docproperties.renderguide">0</property>
  <property name="kdenlive:docproperties.renderplay">0</property>
  <property name="kdenlive:docproperties.renderprofile">MP4-H264/AAC</property>
  <property name="kdenlive:docproperties.renderquality">23</property>
  <property name="kdenlive:docproperties.renderratio">1</property>
  <property name="kdenlive:docproperties.renderrescale">0</property>
  <property name="kdenlive:docproperties.renderrescaleheight">800</property>
  <property name="kdenlive:docproperties.renderrescalewidth">1280</property>
  <property name="kdenlive:docproperties.renderscanning">0</property>
  <property name="kdenlive:docproperties.renderspeed">2</property>
  <property name="kdenlive:docproperties.renderstartguide">-1</property>
  <property name="kdenlive:docproperties.rendertcoverlay">0</property>
  <property name="kdenlive:docproperties.rendertctype">0</property>
  <property name="kdenlive:docproperties.rendertwopass">0</property>
  <property name="kdenlive:docproperties.renderurl">long.mp4</property>
  <property name="kdenlive:docproperties.renderzone">0</property>
  <property name="kdenlive:docproperties.scrollPos">0</property>
  <property name="kdenlive:docproperties.seekOffset">30000</property>
  <property name="kdenlive:docproperties.version">1.04</property>
  <property name="kdenlive:docproperties.verticalzoom">1</property>
  <property name="kdenlive:docproperties.videoTarget">2</property>
  <property name="kdenlive:docproperties.zonein">616</property>
  <property name="kdenlive:docproperties.zoneout">905</property>
  <property name="kdenlive:docproperties.zoom">5</property>
  <property name="kdenlive:expandedFolders">14;15;19;29</property>
  <property name="kdenlive:documentnotes"/>
  <property name="xml_retain">1</property>
  <entry producer="producer0" in="00:00:00.000" out="00:00:04.960"/>
  <entry producer="producer5" in="00:00:00.000" out="00:00:04.960"/>
  <entry producer="producer1" in="00:00:00.000" out="00:00:49.160"/>
  <entry producer="producer2" in="00:00:00.000" out="00:00:06.080"/>
  <entry producer="producer3" in="00:00:00.000" out="00:00:08.640"/>
  <entry producer="producer4" in="00:00:00.000" out="00:00:12.200"/>
  <entry producer="producer6" in="00:00:00.000" out="00:00:09.000"/>
  <entry producer="producer7" in="00:00:00.000" out="00:00:04.960"/>
  <entry producer="producer8" in="00:00:00.000" out="00:00:12.880"/>
  <entry producer="producer10" in="00:00:00.000" out="00:00:04.960"/>
  <entry producer="producer11" in="00:00:00.000" out="00:00:05.720"/>
  <entry producer="producer12" in="00:00:00.000" out="00:00:04.960"/>
  <entry producer="producer13" in="00:00:00.000" out="00:00:04.360"/>
  <entry producer="producer14" in="00:00:00.000" out="00:00:04.960"/>
  <entry producer="producer9" in="00:00:00.000" out="00:00:04.960"/>
  <entry producer="producer19" in="00:00:00.000" out="00:00:04.960"/>
  <entry producer="producer18" in="00:00:00.000" out="00:00:20.240"/>
  <entry producer="producer15" in="00:00:00.000" out="00:00:04.960"/>
  <entry producer="producer16" in="00:00:00.000" out="00:00:04.960"/>
  <entry producer="producer17" in="00:00:00.000" out="00:00:04.960"/>
  <entry producer="producer20" in="00:00:00.000" out="00:00:04.960"/>
  <entry producer="producer21" in="00:00:00.000" out="00:00:04.960"/>
  <entry producer="producer22" in="00:00:00.000" out="00:00:04.960"/>
  <entry producer="producer23" in="00:00:00.000" out="00:00:04.960"/>
 </playlist>
 <producer id="black_track" in="00:00:00.000" out="00:21:45.400">
  <property name="length">2147483647</property>
  <property name="eof">continue</property>
  <property name="resource">black</property>
  <property name="aspect_ratio">1</property>
  <property name="mlt_service">color</property>
  <property name="mlt_image_format">rgba</property>
  <property name="set.test_audio">0</property>
 </producer>
 <playlist id="playlist0">
  <property name="kdenlive:audio_track">1</property>
 </playlist>
 <playlist id="playlist1">
  <property name="kdenlive:audio_track">1</property>
 </playlist>
 <tractor id="tractor0" in="00:00:00.000">
  <property name="kdenlive:audio_track">1</property>
  <property name="kdenlive:trackheight">69</property>
  <property name="kdenlive:timeline_active">1</property>
  <property name="kdenlive:collapsed">0</property>
  <property name="kdenlive:thumbs_format"/>
  <property name="kdenlive:audio_rec"/>
  <track hide="video" producer="playlist0"/>
  <track hide="video" producer="playlist1"/>
  <filter id="filter0">
   <property name="window">75</property>
   <property name="max_gain">20dB</property>
   <property name="mlt_service">volume</property>
   <property name="internal_added">237</property>
   <property name="disable">1</property>
  </filter>
  <filter id="filter1">
   <property name="channel">-1</property>
   <property name="mlt_service">panner</property>
   <property name="internal_added">237</property>
   <property name="start">0.5</property>
   <property name="disable">1</property>
  </filter>
  <filter id="filter2">
   <property name="iec_scale">0</property>
   <property name="mlt_service">audiolevel</property>
   <property name="disable">1</property>
  </filter>
 </tractor>
 <playlist id="playlist2">
  <property name="kdenlive:audio_track">1</property>
 </playlist>
 <playlist id="playlist3">
  <property name="kdenlive:audio_track">1</property>
 </playlist>
 <tractor id="tractor1" in="00:00:00.000">
  <property name="kdenlive:audio_track">1</property>
  <property name="kdenlive:trackheight">69</property>
  <property name="kdenlive:timeline_active">1</property>
  <property name="kdenlive:collapsed">0</property>
  <property name="kdenlive:thumbs_format"/>
  <property name="kdenlive:audio_rec"/>
  <track hide="video" producer="playlist2"/>
  <track hide="video" producer="playlist3"/>
  <filter id="filter3">
   <property name="window">75</property>
   <property name="max_gain">20dB</property>
   <property name="mlt_service">volume</property>
   <property name="internal_added">237</property>
   <property name="disable">1</property>
  </filter>
  <filter id="filter4">
   <property name="channel">-1</property>
   <property name="mlt_service">panner</property>
   <property name="internal_added">237</property>
   <property name="start">0.5</property>
   <property name="disable">1</property>
  </filter>
  <filter id="filter5">
   <property name="iec_scale">0</property>
   <property name="mlt_service">audiolevel</property>
   <property name="disable">1</property>
  </filter>
 </tractor>
 <producer id="producer24" in="00:00:00.000" out="00:00:49.160">
  <property name="length">1230</property>
  <property name="eof">pause</property>
  <property name="resource">ppt_raw.mp4</property>
  <property name="audio_index">-1</property>
  <property name="video_index">0</property>
  <property name="mute_on_pause">0</property>
  <property name="mlt_service">avformat-novalidate</property>
  <property name="seekable">1</property>
  <property name="aspect_ratio">1</property>
  <property name="kdenlive:clipname"/>
  <property name="kdenlive:folderid">-1</property>
  <property name="kdenlive:file_size">6068705</property>
  <property name="kdenlive:id">4</property>
  <property name="kdenlive:file_hash">586df902b2a76bac42572716b62fb00e</property>
  <property name="xml">was here</property>
  <property name="meta.media.nb_streams">1</property>
  <property name="meta.media.0.stream.type">video</property>
  <property name="meta.media.0.stream.frame_rate">24</property>
  <property name="meta.media.0.stream.sample_aspect_ratio">1</property>
  <property name="meta.media.0.codec.width">2560</property>
  <property name="meta.media.0.codec.height">1600</property>
  <property name="meta.media.0.codec.rotate">0</property>
  <property name="meta.media.0.codec.pix_fmt">yuv444p</property>
  <property name="meta.media.0.codec.sample_aspect_ratio">1</property>
  <property name="meta.media.0.codec.colorspace">709</property>
  <property name="meta.media.0.codec.color_trc">1</property>
  <property name="meta.media.0.codec.name">h264</property>
  <property name="meta.media.0.codec.long_name">H.264 / AVC / MPEG-4 AVC / MPEG-4 part 10</property>
  <property name="meta.media.0.codec.bit_rate">985693</property>
  <property name="meta.attr.0.stream.creation_time.markup">2023-03-06T21:29:21.000000Z</property>
  <property name="meta.attr.0.stream.handler_name.markup">VideoHandler</property>
  <property name="meta.attr.0.stream.vendor_id.markup">[0][0][0][0]</property>
  <property name="meta.attr.major_brand.markup">mp42</property>
  <property name="meta.attr.minor_version.markup">0</property>
  <property name="meta.attr.compatible_brands.markup">mp42mp41isomiso2</property>
  <property name="meta.attr.creation_time.markup">2023-03-06T21:29:21.000000Z</property>
  <property name="meta.attr.encoder.markup">x264</property>
  <property name="meta.media.sample_aspect_num">1</property>
  <property name="meta.media.sample_aspect_den">1</property>
  <property name="meta.media.frame_rate_num">24</property>
  <property name="meta.media.frame_rate_den">1</property>
  <property name="meta.media.colorspace">709</property>
  <property name="meta.media.color_trc">1</property>
  <property name="meta.media.has_b_frames">0</property>
  <property name="meta.media.width">2560</property>
  <property name="meta.media.height">1600</property>
  <property name="meta.media.color_range">mpeg</property>
  <property name="meta.media.top_field_first">0</property>
  <property name="meta.media.progressive">1</property>
  <property name="set.test_audio">1</property>
  <property name="set.test_image">0</property>
 </producer>
 <producer id="producer25" in="00:00:00.000" out="00:00:06.080">
  <property name="length">153</property>
  <property name="eof">pause</property>
  <property name="resource">AI_story/1_AI_code.mp4</property>
  <property name="audio_index">-1</property>
  <property name="video_index">0</property>
  <property name="mute_on_pause">0</property>
  <property name="mlt_service">avformat-novalidate</property>
  <property name="seekable">1</property>
  <property name="aspect_ratio">1</property>
  <property name="kdenlive:clipname"/>
  <property name="kdenlive:folderid">-1</property>
  <property name="kdenlive:id">5</property>
  <property name="kdenlive:file_size">280902</property>
  <property name="kdenlive:file_hash">ae9c2ef0c781aef9c7511b2d370fb218</property>
  <property name="xml">was here</property>
  <property name="meta.media.nb_streams">1</property>
  <property name="meta.media.0.stream.type">video</property>
  <property name="meta.media.0.stream.frame_rate">24</property>
  <property name="meta.media.0.stream.sample_aspect_ratio">1</property>
  <property name="meta.media.0.codec.width">1268</property>
  <property name="meta.media.0.codec.height">772</property>
  <property name="meta.media.0.codec.rotate">0</property>
  <property name="meta.media.0.codec.pix_fmt">yuv444p</property>
  <property name="meta.media.0.codec.sample_aspect_ratio">1</property>
  <property name="meta.media.0.codec.colorspace">709</property>
  <property name="meta.media.0.codec.color_trc">1</property>
  <property name="meta.media.0.codec.name">h264</property>
  <property name="meta.media.0.codec.long_name">H.264 / AVC / MPEG-4 AVC / MPEG-4 part 10</property>
  <property name="meta.media.0.codec.bit_rate">364920</property>
  <property name="meta.attr.0.stream.creation_time.markup">2023-03-07T03:40:47.000000Z</property>
  <property name="meta.attr.0.stream.handler_name.markup">VideoHandler</property>
  <property name="meta.attr.0.stream.vendor_id.markup">[0][0][0][0]</property>
  <property name="meta.attr.major_brand.markup">mp42</property>
  <property name="meta.attr.minor_version.markup">0</property>
  <property name="meta.attr.compatible_brands.markup">mp42mp41isomiso2</property>
  <property name="meta.attr.creation_time.markup">2023-03-07T03:40:47.000000Z</property>
  <property name="meta.attr.encoder.markup">x264</property>
  <property name="meta.media.sample_aspect_num">1</property>
  <property name="meta.media.sample_aspect_den">1</property>
  <property name="meta.media.frame_rate_num">24</property>
  <property name="meta.media.frame_rate_den">1</property>
  <property name="meta.media.colorspace">709</property>
  <property name="meta.media.color_trc">1</property>
  <property name="meta.media.has_b_frames">0</property>
  <property name="meta.media.width">1268</property>
  <property name="meta.media.height">772</property>
  <property name="meta.media.color_range">mpeg</property>
  <property name="meta.media.top_field_first">0</property>
  <property name="meta.media.progressive">1</property>
  <property name="set.test_audio">1</property>
  <property name="set.test_image">0</property>
 </producer>
 <producer id="producer26" in="00:00:00.000" out="00:00:12.200">
  <property name="length">306</property>
  <property name="eof">pause</property>
  <property name="resource">AI_story/1_AI_web.mp4</property>
  <property name="audio_index">-1</property>
  <property name="video_index">0</property>
  <property name="mute_on_pause">0</property>
  <property name="mlt_service">avformat-novalidate</property>
  <property name="seekable">1</property>
  <property name="aspect_ratio">1</property>
  <property name="kdenlive:clipname"/>
  <property name="kdenlive:folderid">-1</property>
  <property name="kdenlive:id">7</property>
  <property name="kdenlive:file_size">426804</property>
  <property name="kdenlive:file_hash">775abf500453e0a4c3856d675e00e465</property>
  <property name="xml">was here</property>
  <property name="meta.media.nb_streams">1</property>
  <property name="meta.media.0.stream.type">video</property>
  <property name="meta.media.0.stream.frame_rate">24</property>
  <property name="meta.media.0.stream.sample_aspect_ratio">1</property>
  <property name="meta.media.0.codec.width">1628</property>
  <property name="meta.media.0.codec.height">1032</property>
  <property name="meta.media.0.codec.rotate">0</property>
  <property name="meta.media.0.codec.pix_fmt">yuv444p</property>
  <property name="meta.media.0.codec.sample_aspect_ratio">1</property>
  <property name="meta.media.0.codec.colorspace">709</property>
  <property name="meta.media.0.codec.color_trc">1</property>
  <property name="meta.media.0.codec.name">h264</property>
  <property name="meta.media.0.codec.long_name">H.264 / AVC / MPEG-4 AVC / MPEG-4 part 10</property>
  <property name="meta.media.0.codec.bit_rate">277356</property>
  <property name="meta.attr.0.stream.creation_time.markup">2023-03-07T03:45:05.000000Z</property>
  <property name="meta.attr.0.stream.handler_name.markup">VideoHandler</property>
  <property name="meta.attr.0.stream.vendor_id.markup">[0][0][0][0]</property>
  <property name="meta.attr.major_brand.markup">mp42</property>
  <property name="meta.attr.minor_version.markup">0</property>
  <property name="meta.attr.compatible_brands.markup">mp42mp41isomiso2</property>
  <property name="meta.attr.creation_time.markup">2023-03-07T03:45:05.000000Z</property>
  <property name="meta.attr.encoder.markup">x264</property>
  <property name="meta.media.sample_aspect_num">1</property>
  <property name="meta.media.sample_aspect_den">1</property>
  <property name="meta.media.frame_rate_num">24</property>
  <property name="meta.media.frame_rate_den">1</property>
  <property name="meta.media.colorspace">709</property>
  <property name="meta.media.color_trc">1</property>
  <property name="meta.media.has_b_frames">0</property>
  <property name="meta.media.width">1628</property>
  <property name="meta.media.height">1032</property>
  <property name="meta.media.color_range">mpeg</property>
  <property name="meta.media.top_field_first">0</property>
  <property name="meta.media.progressive">1</property>
  <property name="set.test_audio">1</property>
  <property name="set.test_image">0</property>
 </producer>
 <producer id="producer27" in="00:00:00.000" out="00:00:12.880">
  <property name="length">323</property>
  <property name="eof">pause</property>
  <property name="resource">AI_story/2_add_variable_web.mp4</property>
  <property name="audio_index">-1</property>
  <property name="video_index">0</property>
  <property name="mute_on_pause">0</property>
  <property name="mlt_service">avformat-novalidate</property>
  <property name="seekable">1</property>
  <property name="aspect_ratio">1</property>
  <property name="kdenlive:clipname"/>
  <property name="kdenlive:folderid">15</property>
  <property name="kdenlive:id">10</property>
  <property name="kdenlive:file_size">373844</property>
  <property name="kdenlive:file_hash">61aed1d6253667675119b49f80d9a08e</property>
  <property name="xml">was here</property>
  <property name="meta.media.nb_streams">1</property>
  <property name="meta.media.0.stream.type">video</property>
  <property name="meta.media.0.stream.frame_rate">24</property>
  <property name="meta.media.0.stream.sample_aspect_ratio">1</property>
  <property name="meta.media.0.codec.width">1630</property>
  <property name="meta.media.0.codec.height">1004</property>
  <property name="meta.media.0.codec.rotate">0</property>
  <property name="meta.media.0.codec.pix_fmt">yuv444p</property>
  <property name="meta.media.0.codec.sample_aspect_ratio">1</property>
  <property name="meta.media.0.codec.colorspace">709</property>
  <property name="meta.media.0.codec.color_trc">1</property>
  <property name="meta.media.0.codec.name">h264</property>
  <property name="meta.media.0.codec.long_name">H.264 / AVC / MPEG-4 AVC / MPEG-4 part 10</property>
  <property name="meta.media.0.codec.bit_rate">230201</property>
  <property name="meta.attr.0.stream.creation_time.markup">2023-03-07T04:09:17.000000Z</property>
  <property name="meta.attr.0.stream.handler_name.markup">VideoHandler</property>
  <property name="meta.attr.0.stream.vendor_id.markup">[0][0][0][0]</property>
  <property name="meta.attr.major_brand.markup">mp42</property>
  <property name="meta.attr.minor_version.markup">0</property>
  <property name="meta.attr.compatible_brands.markup">mp42mp41isomiso2</property>
  <property name="meta.attr.creation_time.markup">2023-03-07T04:09:17.000000Z</property>
  <property name="meta.attr.encoder.markup">x264</property>
  <property name="meta.media.sample_aspect_num">1</property>
  <property name="meta.media.sample_aspect_den">1</property>
  <property name="meta.media.frame_rate_num">24</property>
  <property name="meta.media.frame_rate_den">1</property>
  <property name="meta.media.colorspace">709</property>
  <property name="meta.media.color_trc">1</property>
  <property name="meta.media.has_b_frames">0</property>
  <property name="meta.media.width">1630</property>
  <property name="meta.media.height">1004</property>
  <property name="meta.media.color_range">mpeg</property>
  <property name="meta.media.top_field_first">0</property>
  <property name="meta.media.progressive">1</property>
  <property name="set.test_audio">1</property>
  <property name="set.test_image">0</property>
 </producer>
 <playlist id="playlist4">
  <entry producer="producer24" in="00:00:00.000" out="00:00:03.760">
   <property name="kdenlive:id">4</property>
  </entry>
  <entry producer="producer24" in="00:00:07.320" out="00:00:24.920">
   <property name="kdenlive:id">4</property>
  </entry>
  <entry producer="producer24" in="00:00:28.480" out="00:00:29.800">
   <property name="kdenlive:id">4</property>
  </entry>
  <blank length="00:00:03.720"/>
  <entry producer="producer25" in="00:00:00.000" out="00:00:03.560">
   <property name="kdenlive:id">5</property>
  </entry>
  <entry producer="producer26" in="00:00:00.000" out="00:00:06.400">
   <property name="kdenlive:id">7</property>
  </entry>
  <entry producer="producer26" in="00:00:10.000" out="00:00:12.200">
   <property name="kdenlive:id">7</property>
  </entry>
  <entry producer="producer0" in="00:00:00.000" out="00:00:04.960">
   <property name="kdenlive:id">2</property>
  </entry>
  <blank length="00:00:05.360"/>
  <entry producer="producer27" in="00:00:00.000" out="00:00:02.960">
   <property name="kdenlive:id">10</property>
  </entry>
  <entry producer="producer27" in="00:00:03.960" out="00:00:04.280">
   <property name="kdenlive:id">10</property>
  </entry>
  <entry producer="producer27" in="00:00:06.080" out="00:00:12.880">
   <property name="kdenlive:id">10</property>
  </entry>
  <entry producer="producer0" in="00:00:00.000" out="00:00:05.600">
   <property name="kdenlive:id">2</property>
  </entry>
  <blank length="00:00:02.880"/>
  <entry producer="producer9" in="00:00:00.000" out="00:00:01.880">
   <property name="kdenlive:id">18</property>
  </entry>
  <blank length="00:00:02.840"/>
  <entry producer="producer0" in="00:00:00.000" out="00:00:02.640">
   <property name="kdenlive:id">2</property>
  </entry>
  <blank length="00:00:16.440"/>
  <entry producer="producer21" in="00:00:00.000" out="00:00:03.640">
   <property name="kdenlive:id">26</property>
  </entry>
  <blank length="00:00:03.640"/>
  <entry producer="producer24" in="00:00:36.920" out="00:00:39.360">
   <property name="kdenlive:id">4</property>
  </entry>
  <entry producer="producer24" in="00:00:42.520" out="00:00:46.320">
   <property name="kdenlive:id">4</property>
  </entry>
 </playlist>
 <producer id="producer28" in="00:00:00.000" out="00:00:04.360">
  <property name="length">110</property>
  <property name="eof">pause</property>
  <property name="resource">AI_story/3_theme_web.mp4</property>
  <property name="audio_index">-1</property>
  <property name="video_index">0</property>
  <property name="mute_on_pause">0</property>
  <property name="mlt_service">avformat-novalidate</property>
  <property name="seekable">1</property>
  <property name="aspect_ratio">1</property>
  <property name="kdenlive:clipname"/>
  <property name="kdenlive:folderid">-1</property>
  <property name="kdenlive:id">16</property>
  <property name="kdenlive:file_size">210541</property>
  <property name="kdenlive:file_hash">c962d57b929706aba7e19f207c9d4886</property>
  <property name="xml">was here</property>
  <property name="meta.media.nb_streams">1</property>
  <property name="meta.media.0.stream.type">video</property>
  <property name="meta.media.0.stream.frame_rate">24</property>
  <property name="meta.media.0.stream.sample_aspect_ratio">1</property>
  <property name="meta.media.0.codec.width">1632</property>
  <property name="meta.media.0.codec.height">1018</property>
  <property name="meta.media.0.codec.rotate">0</property>
  <property name="meta.media.0.codec.pix_fmt">yuv444p</property>
  <property name="meta.media.0.codec.sample_aspect_ratio">1</property>
  <property name="meta.media.0.codec.colorspace">709</property>
  <property name="meta.media.0.codec.color_trc">1</property>
  <property name="meta.media.0.codec.name">h264</property>
  <property name="meta.media.0.codec.long_name">H.264 / AVC / MPEG-4 AVC / MPEG-4 part 10</property>
  <property name="meta.media.0.codec.bit_rate">378921</property>
  <property name="meta.attr.0.stream.creation_time.markup">2023-03-07T04:14:30.000000Z</property>
  <property name="meta.attr.0.stream.handler_name.markup">VideoHandler</property>
  <property name="meta.attr.0.stream.vendor_id.markup">[0][0][0][0]</property>
  <property name="meta.attr.major_brand.markup">mp42</property>
  <property name="meta.attr.minor_version.markup">0</property>
  <property name="meta.attr.compatible_brands.markup">mp42mp41isomiso2</property>
  <property name="meta.attr.creation_time.markup">2023-03-07T04:14:30.000000Z</property>
  <property name="meta.attr.encoder.markup">x264</property>
  <property name="meta.media.sample_aspect_num">1</property>
  <property name="meta.media.sample_aspect_den">1</property>
  <property name="meta.media.frame_rate_num">24</property>
  <property name="meta.media.frame_rate_den">1</property>
  <property name="meta.media.colorspace">709</property>
  <property name="meta.media.color_trc">1</property>
  <property name="meta.media.has_b_frames">0</property>
  <property name="meta.media.width">1632</property>
  <property name="meta.media.height">1018</property>
  <property name="meta.media.color_range">mpeg</property>
  <property name="meta.media.top_field_first">0</property>
  <property name="meta.media.progressive">1</property>
  <property name="set.test_audio">1</property>
  <property name="set.test_image">0</property>
 </producer>
 <playlist id="playlist5">
  <blank length="00:00:21.800"/>
  <entry producer="producer0" in="00:00:00.000" out="00:00:04.680">
   <property name="kdenlive:id">2</property>
  </entry>
  <blank length="00:00:42.280"/>
  <entry producer="producer28" in="00:00:00.000" out="00:00:03.800">
   <property name="kdenlive:id">16</property>
  </entry>
  <blank length="00:00:21.800"/>
  <entry producer="producer19" in="00:00:00.000" out="00:00:04.600">
   <property name="kdenlive:id">20</property>
  </entry>
 </playlist>
 <tractor id="tractor2" in="00:00:00.000" out="00:01:45.360">
  <property name="kdenlive:trackheight">69</property>
  <property name="kdenlive:timeline_active">1</property>
  <property name="kdenlive:collapsed">0</property>
  <property name="kdenlive:thumbs_format"/>
  <property name="kdenlive:audio_rec"/>
  <track hide="audio" producer="playlist4"/>
  <track hide="audio" producer="playlist5"/>
  <transition id="transition1" in="00:01:34.440" out="00:01:35.440">
   <property name="a_track">0</property>
   <property name="b_track">1</property>
   <property name="factory">loader</property>
   <property name="resource"/>
   <property name="mlt_service">luma</property>
   <property name="kdenlive_id">luma</property>
   <property name="kdenlive:mixcut">12</property>
   <property name="softness">0</property>
   <property name="alpha_over">1</property>
   <property name="reverse">0</property>
  </transition>
  <transition id="transition0" in="00:01:08.800" out="00:01:09.800">
   <property name="a_track">0</property>
   <property name="b_track">1</property>
   <property name="factory">loader</property>
   <property name="resource"/>
   <property name="mlt_service">luma</property>
   <property name="kdenlive_id">luma</property>
   <property name="kdenlive:mixcut">25</property>
   <property name="softness">0</property>
   <property name="alpha_over">1</property>
   <property name="reverse">0</property>
  </transition>
  <transition id="transition2" in="00:00:21.800" out="00:00:22.800">
   <property name="a_track">0</property>
   <property name="b_track">1</property>
   <property name="factory">loader</property>
   <property name="resource"/>
   <property name="mlt_service">luma</property>
   <property name="kdenlive_id">luma</property>
   <property name="kdenlive:mixcut">12</property>
   <property name="softness">0</property>
   <property name="alpha_over">1</property>
   <property name="reverse">0</property>
  </transition>
 </tractor>
 <producer id="producer29" in="00:00:00.000" out="00:00:04.960">
  <property name="length">00:00:05.000</property>
  <property name="eof">pause</property>
  <property name="resource">AI_story/3_theme_code.png</property>
  <property name="ttl">25</property>
  <property name="aspect_ratio">1</property>
  <property name="progressive">1</property>
  <property name="seekable">1</property>
  <property name="meta.media.width">2560</property>
  <property name="meta.media.height">1600</property>
  <property name="mlt_service">qimage</property>
  <property name="kdenlive:clipname"/>
  <property name="kdenlive:duration">00:00:05.000</property>
  <property name="kdenlive:folderid">19</property>
  <property name="kdenlive:id">13</property>
  <property name="kdenlive:file_size">924044</property>
  <property name="kdenlive:file_hash">67d9c39c46fc50f2b90f63f462447ad3</property>
  <property name="xml">was here</property>
  <property name="set.test_audio">1</property>
  <property name="set.test_image">1</property>
 </producer>
 <playlist id="playlist6">
  <blank length="00:00:22.320"/>
  <entry producer="producer5" in="00:00:00.000" out="00:00:04.160">
   <property name="kdenlive:id">3</property>
   <filter id="filter6">
    <property name="step_length">1</property>
    <property name="step_sigma">0</property>
    <property name="random_seed">0</property>
    <property name="macro_type">2</property>
    <property name="mlt_service">typewriter</property>
    <property name="kdenlive_id">typewriter</property>
    <property name="kdenlive:collapsed">0</property>
   </filter>
  </entry>
  <blank length="00:00:03.600"/>
  <entry producer="producer3" in="00:00:00.000" out="00:00:08.640">
   <property name="kdenlive:id">6</property>
   <filter id="filter7">
    <property name="rotate_center">1</property>
    <property name="mlt_service">qtblend</property>
    <property name="kdenlive_id">qtblend</property>
    <property name="rect">00:00:00.000=0 0 2560 1600 1.000000;00:00:00.040=0 0 2560 1600 1.000000;00:00:01.120=0 800 1280 800 1.000000</property>
    <property name="rotation">00:00:00.000=0;00:00:00.040=0;00:00:01.120=0</property>
    <property name="compositing">0</property>
    <property name="distort">0</property>
    <property name="kdenlive:collapsed">0</property>
   </filter>
  </entry>
  <entry producer="producer7" in="00:00:00.000" out="00:00:04.960">
   <property name="kdenlive:id">9</property>
   <filter id="filter8">
    <property name="step_length">1</property>
    <property name="step_sigma">0</property>
    <property name="random_seed">0</property>
    <property name="macro_type">1</property>
    <property name="mlt_service">typewriter</property>
    <property name="kdenlive_id">typewriter</property>
    <property name="kdenlive:collapsed">0</property>
   </filter>
  </entry>
  <blank length="00:00:05.360"/>
  <entry producer="producer10" in="00:00:00.000" out="00:00:04.960">
   <property name="kdenlive:id">11</property>
   <filter id="filter9">
    <property name="rotate_center">1</property>
    <property name="mlt_service">qtblend</property>
    <property name="kdenlive_id">qtblend</property>
    <property name="rect">00:00:00.000=0 0 2560 1600 1.000000;00:00:00.040=0 0 2560 1600 1.000000;00:00:00.520=-21 935 1280 800 1.000000</property>
    <property name="rotation">00:00:00.000=0;00:00:00.040=0;00:00:00.520=0</property>
    <property name="compositing">0</property>
    <property name="distort">0</property>
    <property name="kdenlive:collapsed">0</property>
   </filter>
  </entry>
  <blank length="00:00:05.200"/>
  <entry producer="producer14" in="00:00:00.000" out="00:00:05.600">
   <property name="kdenlive:id">17</property>
   <filter id="filter10">
    <property name="step_length">1</property>
    <property name="step_sigma">0</property>
    <property name="random_seed">0</property>
    <property name="macro_type">1</property>
    <property name="mlt_service">typewriter</property>
    <property name="kdenlive_id">typewriter</property>
    <property name="kdenlive:collapsed">0</property>
   </filter>
  </entry>
  <blank length="00:00:02.880"/>
  <entry producer="producer29" in="00:00:00.000" out="00:00:04.720">
   <property name="kdenlive:id">13</property>
   <filter id="filter11">
    <property name="rotate_center">1</property>
    <property name="mlt_service">qtblend</property>
    <property name="kdenlive_id">qtblend</property>
    <property name="rect">00:00:00.000=0 0 2560 1600 1.000000;00:00:00.040=0 0 2560 1600 1.000000;00:00:01.520=-85 826 1280 800 1.000000</property>
    <property name="rotation">00:00:00.000=0;00:00:00.040=0;00:00:01.520=0</property>
    <property name="compositing">0</property>
    <property name="distort">0</property>
    <property name="kdenlive:collapsed">0</property>
   </filter>
  </entry>
  <entry producer="producer17" in="00:00:00.000" out="00:00:02.640">
   <property name="kdenlive:id">24</property>
   <filter id="filter12">
    <property name="step_length">1</property>
    <property name="step_sigma">0</property>
    <property name="random_seed">0</property>
    <property name="macro_type">1</property>
    <property name="mlt_service">typewriter</property>
    <property name="kdenlive_id">typewriter</property>
    <property name="kdenlive:collapsed">0</property>
   </filter>
  </entry>
  <blank length="00:00:16.440"/>
  <entry producer="producer22" in="00:00:00.000" out="00:00:03.640">
   <property name="kdenlive:id">27</property>
  </entry>
 </playlist>
 <playlist id="playlist7">
  <blank length="00:01:34.440"/>
  <entry producer="producer23" in="00:00:00.000" out="00:00:04.600">
   <property name="kdenlive:id">28</property>
  </entry>
 </playlist>
 <tractor id="tractor3" in="00:00:00.000" out="00:01:39.040">
  <property name="kdenlive:trackheight">69</property>
  <property name="kdenlive:timeline_active">1</property>
  <property name="kdenlive:collapsed">0</property>
  <property name="kdenlive:track_name">V3</property>
  <property name="kdenlive:thumbs_format"/>
  <property name="kdenlive:audio_rec"/>
  <track hide="audio" producer="playlist6"/>
  <track hide="audio" producer="playlist7"/>
  <transition id="transition3" in="00:01:34.440" out="00:01:35.440">
   <property name="a_track">0</property>
   <property name="b_track">1</property>
   <property name="factory">loader</property>
   <property name="resource"/>
   <property name="mlt_service">luma</property>
   <property name="kdenlive_id">luma</property>
   <property name="kdenlive:mixcut">12</property>
   <property name="softness">0</property>
   <property name="alpha_over">1</property>
   <property name="reverse">0</property>
  </transition>
 </tractor>
 <producer id="producer30" in="00:00:00.000" out="00:00:09.000">
  <property name="length">226</property>
  <property name="eof">pause</property>
  <property name="resource">AI_story/2_add_variable_code.mp4</property>
  <property name="audio_index">-1</property>
  <property name="video_index">0</property>
  <property name="mute_on_pause">0</property>
  <property name="mlt_service">avformat-novalidate</property>
  <property name="seekable">1</property>
  <property name="aspect_ratio">1</property>
  <property name="kdenlive:clipname"/>
  <property name="kdenlive:folderid">-1</property>
  <property name="kdenlive:id">8</property>
  <property name="kdenlive:file_size">420553</property>
  <property name="kdenlive:file_hash">d1bc434dfa967e958ab73efb0fda7d91</property>
  <property name="xml">was here</property>
  <property name="meta.media.nb_streams">1</property>
  <property name="meta.media.0.stream.type">video</property>
  <property name="meta.media.0.stream.frame_rate">24</property>
  <property name="meta.media.0.stream.sample_aspect_ratio">1</property>
  <property name="meta.media.0.codec.width">1278</property>
  <property name="meta.media.0.codec.height">998</property>
  <property name="meta.media.0.codec.rotate">0</property>
  <property name="meta.media.0.codec.pix_fmt">yuv444p</property>
  <property name="meta.media.0.codec.sample_aspect_ratio">1</property>
  <property name="meta.media.0.codec.colorspace">709</property>
  <property name="meta.media.0.codec.color_trc">1</property>
  <property name="meta.media.0.codec.name">h264</property>
  <property name="meta.media.0.codec.long_name">H.264 / AVC / MPEG-4 AVC / MPEG-4 part 10</property>
  <property name="meta.media.0.codec.bit_rate">370518</property>
  <property name="meta.attr.0.stream.creation_time.markup">2023-03-07T04:06:14.000000Z</property>
  <property name="meta.attr.0.stream.handler_name.markup">VideoHandler</property>
  <property name="meta.attr.0.stream.vendor_id.markup">[0][0][0][0]</property>
  <property name="meta.attr.major_brand.markup">mp42</property>
  <property name="meta.attr.minor_version.markup">0</property>
  <property name="meta.attr.compatible_brands.markup">mp42mp41isomiso2</property>
  <property name="meta.attr.creation_time.markup">2023-03-07T04:06:14.000000Z</property>
  <property name="meta.attr.encoder.markup">x264</property>
  <property name="meta.media.sample_aspect_num">1</property>
  <property name="meta.media.sample_aspect_den">1</property>
  <property name="meta.media.frame_rate_num">24</property>
  <property name="meta.media.frame_rate_den">1</property>
  <property name="meta.media.colorspace">709</property>
  <property name="meta.media.color_trc">1</property>
  <property name="meta.media.has_b_frames">0</property>
  <property name="meta.media.width">1278</property>
  <property name="meta.media.height">998</property>
  <property name="meta.media.color_range">mpeg</property>
  <property name="meta.media.top_field_first">0</property>
  <property name="meta.media.progressive">1</property>
  <property name="set.test_audio">1</property>
  <property name="set.test_image">0</property>
 </producer>
 <producer id="producer31" in="00:00:00.000" out="00:00:05.720">
  <property name="length">144</property>
  <property name="eof">pause</property>
  <property name="resource">AI_story/3_theme_code.mp4</property>
  <property name="audio_index">-1</property>
  <property name="video_index">0</property>
  <property name="mute_on_pause">0</property>
  <property name="mlt_service">avformat-novalidate</property>
  <property name="seekable">1</property>
  <property name="aspect_ratio">1</property>
  <property name="kdenlive:clipname"/>
  <property name="kdenlive:folderid">-1</property>
  <property name="kdenlive:id">12</property>
  <property name="kdenlive:file_size">418140</property>
  <property name="kdenlive:file_hash">0e38381d3b4737b280c1178cd4cb2a47</property>
  <property name="xml">was here</property>
  <property name="meta.media.nb_streams">1</property>
  <property name="meta.media.0.stream.type">video</property>
  <property name="meta.media.0.stream.frame_rate">24</property>
  <property name="meta.media.0.stream.sample_aspect_ratio">1</property>
  <property name="meta.media.0.codec.width">1280</property>
  <property name="meta.media.0.codec.height">1004</property>
  <property name="meta.media.0.codec.rotate">0</property>
  <property name="meta.media.0.codec.pix_fmt">yuv444p</property>
  <property name="meta.media.0.codec.sample_aspect_ratio">1</property>
  <property name="meta.media.0.codec.colorspace">709</property>
  <property name="meta.media.0.codec.color_trc">1</property>
  <property name="meta.media.0.codec.name">h264</property>
  <property name="meta.media.0.codec.long_name">H.264 / AVC / MPEG-4 AVC / MPEG-4 part 10</property>
  <property name="meta.media.0.codec.bit_rate">579710</property>
  <property name="meta.attr.0.stream.creation_time.markup">2023-03-07T04:12:12.000000Z</property>
  <property name="meta.attr.0.stream.handler_name.markup">VideoHandler</property>
  <property name="meta.attr.0.stream.vendor_id.markup">[0][0][0][0]</property>
  <property name="meta.attr.major_brand.markup">mp42</property>
  <property name="meta.attr.minor_version.markup">0</property>
  <property name="meta.attr.compatible_brands.markup">mp42mp41isomiso2</property>
  <property name="meta.attr.creation_time.markup">2023-03-07T04:12:12.000000Z</property>
  <property name="meta.attr.encoder.markup">x264</property>
  <property name="meta.media.sample_aspect_num">1</property>
  <property name="meta.media.sample_aspect_den">1</property>
  <property name="meta.media.frame_rate_num">24</property>
  <property name="meta.media.frame_rate_den">1</property>
  <property name="meta.media.colorspace">709</property>
  <property name="meta.media.color_trc">1</property>
  <property name="meta.media.has_b_frames">0</property>
  <property name="meta.media.width">1280</property>
  <property name="meta.media.height">1004</property>
  <property name="meta.media.color_range">mpeg</property>
  <property name="meta.media.top_field_first">0</property>
  <property name="meta.media.progressive">1</property>
  <property name="set.test_audio">1</property>
  <property name="set.test_image">0</property>
 </producer>
 <producer id="producer32" in="00:00:00.000" out="00:00:20.240">
  <property name="length">507</property>
  <property name="eof">pause</property>
  <property name="resource">AI_story/4_local_customization_code.mp4</property>
  <property name="audio_index">-1</property>
  <property name="video_index">0</property>
  <property name="mute_on_pause">0</property>
  <property name="mlt_service">avformat-novalidate</property>
  <property name="seekable">1</property>
  <property name="aspect_ratio">1</property>
  <property name="kdenlive:clipname"/>
  <property name="kdenlive:folderid">29</property>
  <property name="kdenlive:id">21</property>
  <property name="kdenlive:file_size">1675325</property>
  <property name="kdenlive:file_hash">8f17398dc2183a550ff57dc1648c53dc</property>
  <property name="xml">was here</property>
  <property name="meta.media.nb_streams">1</property>
  <property name="meta.media.0.stream.type">video</property>
  <property name="meta.media.0.stream.frame_rate">24</property>
  <property name="meta.media.0.stream.sample_aspect_ratio">1</property>
  <property name="meta.media.0.codec.width">1308</property>
  <property name="meta.media.0.codec.height">1330</property>
  <property name="meta.media.0.codec.rotate">0</property>
  <property name="meta.media.0.codec.pix_fmt">yuv444p</property>
  <property name="meta.media.0.codec.sample_aspect_ratio">1</property>
  <property name="meta.media.0.codec.colorspace">709</property>
  <property name="meta.media.0.codec.color_trc">1</property>
  <property name="meta.media.0.codec.name">h264</property>
  <property name="meta.media.0.codec.long_name">H.264 / AVC / MPEG-4 AVC / MPEG-4 part 10</property>
  <property name="meta.media.0.codec.bit_rate">659363</property>
  <property name="meta.attr.0.stream.creation_time.markup">2023-03-07T04:44:47.000000Z</property>
  <property name="meta.attr.0.stream.handler_name.markup">VideoHandler</property>
  <property name="meta.attr.0.stream.vendor_id.markup">[0][0][0][0]</property>
  <property name="meta.attr.major_brand.markup">mp42</property>
  <property name="meta.attr.minor_version.markup">0</property>
  <property name="meta.attr.compatible_brands.markup">mp42mp41isomiso2</property>
  <property name="meta.attr.creation_time.markup">2023-03-07T04:44:47.000000Z</property>
  <property name="meta.attr.encoder.markup">x264</property>
  <property name="meta.media.sample_aspect_num">1</property>
  <property name="meta.media.sample_aspect_den">1</property>
  <property name="meta.media.frame_rate_num">24</property>
  <property name="meta.media.frame_rate_den">1</property>
  <property name="meta.media.colorspace">709</property>
  <property name="meta.media.color_trc">1</property>
  <property name="meta.media.has_b_frames">0</property>
  <property name="meta.media.width">1308</property>
  <property name="meta.media.height">1330</property>
  <property name="meta.media.color_range">mpeg</property>
  <property name="meta.media.top_field_first">0</property>
  <property name="meta.media.progressive">1</property>
  <property name="set.test_audio">1</property>
  <property name="set.test_image">0</property>
 </producer>
 <producer id="producer33" in="00:00:00.000" out="00:00:20.240">
  <property name="length">507</property>
  <property name="eof">pause</property>
  <property name="resource">AI_story/4_local_customization_code.mp4</property>
  <property name="audio_index">-1</property>
  <property name="video_index">0</property>
  <property name="mute_on_pause">0</property>
  <property name="mlt_service">avformat-novalidate</property>
  <property name="seekable">1</property>
  <property name="aspect_ratio">1</property>
  <property name="kdenlive:clipname"/>
  <property name="kdenlive:folderid">29</property>
  <property name="kdenlive:id">21</property>
  <property name="kdenlive:file_size">1675325</property>
  <property name="kdenlive:file_hash">8f17398dc2183a550ff57dc1648c53dc</property>
  <property name="xml">was here</property>
  <property name="meta.media.nb_streams">1</property>
  <property name="meta.media.0.stream.type">video</property>
  <property name="meta.media.0.stream.frame_rate">24</property>
  <property name="meta.media.0.stream.sample_aspect_ratio">1</property>
  <property name="meta.media.0.codec.width">1308</property>
  <property name="meta.media.0.codec.height">1330</property>
  <property name="meta.media.0.codec.rotate">0</property>
  <property name="meta.media.0.codec.pix_fmt">yuv444p</property>
  <property name="meta.media.0.codec.sample_aspect_ratio">1</property>
  <property name="meta.media.0.codec.colorspace">709</property>
  <property name="meta.media.0.codec.color_trc">1</property>
  <property name="meta.media.0.codec.name">h264</property>
  <property name="meta.media.0.codec.long_name">H.264 / AVC / MPEG-4 AVC / MPEG-4 part 10</property>
  <property name="meta.media.0.codec.bit_rate">659363</property>
  <property name="meta.attr.0.stream.creation_time.markup">2023-03-07T04:44:47.000000Z</property>
  <property name="meta.attr.0.stream.handler_name.markup">VideoHandler</property>
  <property name="meta.attr.0.stream.vendor_id.markup">[0][0][0][0]</property>
  <property name="meta.attr.major_brand.markup">mp42</property>
  <property name="meta.attr.minor_version.markup">0</property>
  <property name="meta.attr.compatible_brands.markup">mp42mp41isomiso2</property>
  <property name="meta.attr.creation_time.markup">2023-03-07T04:44:47.000000Z</property>
  <property name="meta.attr.encoder.markup">x264</property>
  <property name="meta.media.sample_aspect_num">1</property>
  <property name="meta.media.sample_aspect_den">1</property>
  <property name="meta.media.frame_rate_num">24</property>
  <property name="meta.media.frame_rate_den">1</property>
  <property name="meta.media.colorspace">709</property>
  <property name="meta.media.color_trc">1</property>
  <property name="meta.media.has_b_frames">0</property>
  <property name="meta.media.width">1308</property>
  <property name="meta.media.height">1330</property>
  <property name="meta.media.color_range">mpeg</property>
  <property name="meta.media.top_field_first">0</property>
  <property name="meta.media.progressive">1</property>
  <property name="set.test_audio">1</property>
  <property name="set.test_image">1</property>
 </producer>
 <playlist id="playlist8">
  <blank length="00:00:42.680"/>
  <entry producer="producer30" in="00:00:00.000" out="00:00:06.440">
   <property name="kdenlive:id">8</property>
  </entry>
  <blank length="00:00:15.120"/>
  <entry producer="producer31" in="00:00:00.000" out="00:00:03.560">
   <property name="kdenlive:id">12</property>
  </entry>
  <entry producer="producer15" in="00:00:00.000" out="00:00:01.400">
   <property name="kdenlive:id">22</property>
  </entry>
  <entry producer="producer16" in="00:00:00.000" out="00:00:03.280">
   <property name="kdenlive:id">23</property>
  </entry>
  <blank length="00:00:02.040"/>
  <entry producer="producer32" in="00:00:00.000" out="00:00:17.040">
   <property name="kdenlive:id">21</property>
  </entry>
  <entry producer="producer33" in="00:00:17.080" out="00:00:20.240">
   <property name="kdenlive:id">21</property>
  </entry>
 </playlist>
 <playlist id="playlist9"/>
 <tractor id="tractor4" in="00:00:00.000" out="00:01:34.920">
  <property name="kdenlive:trackheight">69</property>
  <property name="kdenlive:timeline_active">1</property>
  <property name="kdenlive:collapsed">0</property>
  <property name="kdenlive:track_name">V4</property>
  <property name="kdenlive:thumbs_format"/>
  <property name="kdenlive:audio_rec"/>
  <track hide="audio" producer="playlist8"/>
  <track hide="audio" producer="playlist9"/>
 </tractor>
 <producer id="producer34" in="00:00:00.000" out="00:00:49.160">
  <property name="length">1230</property>
  <property name="eof">pause</property>
  <property name="resource">ppt_raw.mp4</property>
  <property name="audio_index">-1</property>
  <property name="video_index">0</property>
  <property name="mute_on_pause">0</property>
  <property name="mlt_service">avformat-novalidate</property>
  <property name="seekable">1</property>
  <property name="aspect_ratio">1</property>
  <property name="kdenlive:clipname">0_PPT</property>
  <property name="kdenlive:folderid">-1</property>
  <property name="kdenlive:file_size">6068705</property>
  <property name="kdenlive:id">4</property>
  <property name="kdenlive:file_hash">586df902b2a76bac42572716b62fb00e</property>
  <property name="xml">was here</property>
  <property name="meta.media.nb_streams">1</property>
  <property name="meta.media.0.stream.type">video</property>
  <property name="meta.media.0.stream.frame_rate">24</property>
  <property name="meta.media.0.stream.sample_aspect_ratio">1</property>
  <property name="meta.media.0.codec.width">2560</property>
  <property name="meta.media.0.codec.height">1600</property>
  <property name="meta.media.0.codec.rotate">0</property>
  <property name="meta.media.0.codec.pix_fmt">yuv444p</property>
  <property name="meta.media.0.codec.sample_aspect_ratio">1</property>
  <property name="meta.media.0.codec.colorspace">709</property>
  <property name="meta.media.0.codec.color_trc">1</property>
  <property name="meta.media.0.codec.name">h264</property>
  <property name="meta.media.0.codec.long_name">H.264 / AVC / MPEG-4 AVC / MPEG-4 part 10</property>
  <property name="meta.media.0.codec.bit_rate">985693</property>
  <property name="meta.attr.0.stream.creation_time.markup">2023-03-06T21:29:21.000000Z</property>
  <property name="meta.attr.0.stream.handler_name.markup">VideoHandler</property>
  <property name="meta.attr.0.stream.vendor_id.markup">[0][0][0][0]</property>
  <property name="meta.attr.major_brand.markup">mp42</property>
  <property name="meta.attr.minor_version.markup">0</property>
  <property name="meta.attr.compatible_brands.markup">mp42mp41isomiso2</property>
  <property name="meta.attr.creation_time.markup">2023-03-06T21:29:21.000000Z</property>
  <property name="meta.attr.encoder.markup">x264</property>
  <property name="meta.media.sample_aspect_num">1</property>
  <property name="meta.media.sample_aspect_den">1</property>
  <property name="meta.media.frame_rate_num">24</property>
  <property name="meta.media.frame_rate_den">1</property>
  <property name="meta.media.colorspace">709</property>
  <property name="meta.media.color_trc">1</property>
  <property name="meta.media.has_b_frames">0</property>
  <property name="meta.media.width">2560</property>
  <property name="meta.media.height">1600</property>
  <property name="meta.media.color_range">mpeg</property>
  <property name="meta.media.top_field_first">0</property>
  <property name="meta.media.progressive">1</property>
  <property name="set.test_audio">1</property>
  <property name="set.test_image">1</property>
 </producer>
 <playlist id="playlist10">
  <blank length="00:01:32.520"/>
  <entry producer="producer34" in="00:00:29.840" out="00:00:31.640">
   <property name="kdenlive:id">4</property>
  </entry>
  <entry producer="producer34" in="00:00:31.680" out="00:00:36.840">
   <property name="kdenlive:id">4</property>
  </entry>
 </playlist>
 <playlist id="playlist11"/>
 <tractor id="tractor5" in="00:00:00.000" out="00:01:39.520">
  <property name="kdenlive:trackheight">69</property>
  <property name="kdenlive:timeline_active">1</property>
  <property name="kdenlive:collapsed">0</property>
  <property name="kdenlive:thumbs_format"/>
  <property name="kdenlive:audio_rec"/>
  <track hide="audio" producer="playlist10"/>
  <track hide="audio" producer="playlist11"/>
 </tractor>
 <tractor id="tractor6" in="00:00:00.000" out="00:21:45.400">
  <track producer="black_track"/>
  <track producer="tractor0"/>
  <track producer="tractor1"/>
  <track producer="tractor2"/>
  <track producer="tractor3"/>
  <track producer="tractor4"/>
  <track producer="tractor5"/>
  <transition id="transition4" in="00:01:14.400" out="00:01:15.280">
   <property name="a_track">4</property>
   <property name="b_track">5</property>
   <property name="geometry">00:00:00.000=0% 0% 100% 100% 0%;00:00:00.880=0% 0% 100% 100% 100%</property>
   <property name="factory">loader</property>
   <property name="aligned">0</property>
   <property name="progressive">1</property>
   <property name="mlt_service">composite</property>
   <property name="kdenlive_id">wipe</property>
   <property name="luma"/>
   <property name="softness">0</property>
   <property name="luma_invert">0</property>
   <property name="fill">1</property>
  </transition>
  <transition id="transition5" in="00:01:04.080" out="00:01:05.440">
   <property name="a_track">4</property>
   <property name="b_track">5</property>
   <property name="geometry">00:00:00.000=0% 0% 100% 100% 0%;00:00:01.360=0% 0% 100% 100% 100%</property>
   <property name="factory">loader</property>
   <property name="aligned">0</property>
   <property name="progressive">1</property>
   <property name="mlt_service">composite</property>
   <property name="kdenlive_id">wipe</property>
   <property name="luma"/>
   <property name="softness">0</property>
   <property name="luma_invert">0</property>
   <property name="fill">1</property>
  </transition>
  <transition id="transition6" in="00:00:42.280" out="00:00:43.760">
   <property name="a_track">4</property>
   <property name="b_track">5</property>
   <property name="geometry">00:00:00.000=0% 0% 100% 100% 0%;00:00:01.480=0% 0% 100% 100% 100%</property>
   <property name="factory">loader</property>
   <property name="aligned">0</property>
   <property name="progressive">1</property>
   <property name="mlt_service">composite</property>
   <property name="kdenlive_id">wipe</property>
   <property name="luma"/>
   <property name="softness">0</property>
   <property name="luma_invert">0</property>
   <property name="fill">1</property>
  </transition>
  <transition id="transition7">
   <property name="a_track">0</property>
   <property name="b_track">1</property>
   <property name="mlt_service">mix</property>
   <property name="kdenlive_id">mix</property>
   <property name="internal_added">237</property>
   <property name="always_active">1</property>
   <property name="accepts_blanks">1</property>
   <property name="sum">1</property>
  </transition>
  <transition id="transition8">
   <property name="a_track">0</property>
   <property name="b_track">2</property>
   <property name="mlt_service">mix</property>
   <property name="kdenlive_id">mix</property>
   <property name="internal_added">237</property>
   <property name="always_active">1</property>
   <property name="accepts_blanks">1</property>
   <property name="sum">1</property>
  </transition>
  <transition id="transition9">
   <property name="a_track">0</property>
   <property name="b_track">3</property>
   <property name="version">0.9</property>
   <property name="mlt_service">frei0r.cairoblend</property>
   <property name="kdenlive_id">frei0r.cairoblend</property>
   <property name="internal_added">237</property>
   <property name="always_active">1</property>
  </transition>
  <transition id="transition10">
   <property name="a_track">0</property>
   <property name="b_track">4</property>
   <property name="version">0.9</property>
   <property name="mlt_service">frei0r.cairoblend</property>
   <property name="kdenlive_id">frei0r.cairoblend</property>
   <property name="internal_added">237</property>
   <property name="always_active">1</property>
  </transition>
  <transition id="transition11">
   <property name="a_track">0</property>
   <property name="b_track">5</property>
   <property name="version">0.9</property>
   <property name="mlt_service">frei0r.cairoblend</property>
   <property name="kdenlive_id">frei0r.cairoblend</property>
   <property name="internal_added">237</property>
   <property name="always_active">1</property>
  </transition>
  <transition id="transition12">
   <property name="a_track">0</property>
   <property name="b_track">6</property>
   <property name="version">0.9</property>
   <property name="mlt_service">frei0r.cairoblend</property>
   <property name="kdenlive_id">frei0r.cairoblend</property>
   <property name="internal_added">237</property>
   <property name="always_active">1</property>
  </transition>
  <filter id="filter13">
   <property name="window">75</property>
   <property name="max_gain">20dB</property>
   <property name="mlt_service">volume</property>
   <property name="internal_added">237</property>
   <property name="disable">1</property>
  </filter>
  <filter id="filter14">
   <property name="channel">-1</property>
   <property name="mlt_service">panner</property>
   <property name="internal_added">237</property>
   <property name="start">0.5</property>
   <property name="disable">1</property>
  </filter>
  <filter id="filter15">
   <property name="iec_scale">0</property>
   <property name="mlt_service">audiolevel</property>
   <property name="disable">1</property>
  </filter>
 </tractor>
</mlt>
